<svg height='100px' width='100px'  fill="#000000" xmlns="http://www.w3.org/2000/svg" data-name="Layer 1" viewBox="0 0 80 80" x="0px" y="0px"><title>transport_10</title><path d="M63,34a16,16,0,0,0-3.19.32L57,23.87V16h8a1,1,0,0,0,0-2H56a1,1,0,0,0-1,1v8H31V20h5a1,1,0,0,0,0-2H24a1,1,0,0,0,0,2h5v3.76L23.25,35.27A16,16,0,1,0,33,51h7a1,1,0,0,0,.85-.48l14.79-24,2.25,8.35A16,16,0,1,0,63,34ZM17,64a14,14,0,0,1,0-28,13.84,13.84,0,0,1,5.35,1.07L16.11,49.55A1,1,0,0,0,17,51H31A14,14,0,0,1,17,64Zm1.62-15,5.51-11A14,14,0,0,1,31,49Zm20.82,0H33A16,16,0,0,0,25,36.18L30.62,25H54.21ZM63,64a14,14,0,0,1-4.59-27.21L62,50.26A1,1,0,0,0,63,51a1.15,1.15,0,0,0,.26,0A1,1,0,0,0,64,49.74L60.34,36.26A13.71,13.71,0,0,1,63,36a14,14,0,0,1,0,28Z"></path></svg>