<svg xmlns="http://www.w3.org/2000/svg" data-name="Layer 1" viewBox="0 0 100 125" x="0px" y="0px"><title>Noun_Project_Misc_2</title><path d="M92.75,65.93a1,1,0,0,0-1-.9h-.38c-.36-2.17-2.09-7-10.46-7.42a34.8,34.8,0,0,1-6.62-1.07.49.49,0,0,0-.16,0A43,43,0,0,1,53.87,44.8a.71.71,0,0,0-.08-.15.91.91,0,0,0-.32-.27,36.57,36.57,0,0,1-3.53-4.52.69.69,0,0,0,0-.13.77.77,0,0,0-.17-.19,39.2,39.2,0,0,1-2.28-4h0a1,1,0,0,0-.16-.37,42.12,42.12,0,0,1-3.66-13.22,2.91,2.91,0,0,0-2.35-2.45c-3.61-1.1-10.83.81-13.1,3.46a3.18,3.18,0,0,0-.81,1.86l-15.88,2.1a3.29,3.29,0,0,0-2.84,3.71l.64,4.8a3.24,3.24,0,0,0,2,2.61,49.73,49.73,0,0,1-.06,9.3c-.15,1.17-.43,2.4-.75,3.84a42.86,42.86,0,0,0-1.19,15.4l-.91.66A1,1,0,0,0,8,68l-.4,8.31a1,1,0,0,0,.83,1l6.44,1.08.16,0a1,1,0,0,0,.85-.46c.1-.16.3-.48.52-.8a7.71,7.71,0,0,1,.55.78,1,1,0,0,0,.85.48h5.36a1,1,0,0,0,.87-.5,3.5,3.5,0,0,1,.42-.57,4.69,4.69,0,0,1,.4.56,1,1,0,0,0,.87.51h7a1,1,0,0,0,.67-.26l3.76-3.39c1.67.11,5.9.81,8.22,1.21v.94a1,1,0,0,0,.93,1l6.53.5a1,1,0,0,0,1-.64,1.71,1.71,0,0,1,.26-.43,3.54,3.54,0,0,1,.26.47,1,1,0,0,0,.92.6h5.64a1,1,0,0,0,1-.78,2.66,2.66,0,0,1,.14-.39,3.87,3.87,0,0,1,.36.59,1,1,0,0,0,.9.58H68.9a1,1,0,0,0,1-.81c0-.16.08-.34.12-.51a.52.52,0,0,1,.06.13,1,1,0,0,0,1.08.58l5.54-.89a1,1,0,0,0,.83-.83,3.85,3.85,0,0,1,.09-.41l.18.23a1,1,0,0,0,1,.4L84.17,75a1,1,0,0,0,.77-.9c0-.05,0-.11,0-.17a1,1,0,0,0,1.08.48,33.76,33.76,0,0,0,6.68-2.56,1,1,0,0,0,.54-1Zm-3.31-.43c-1.3.73-5.94,2.89-17.53,4.27-1.3-7.67,1.31-10.5,2.22-11.23a36.11,36.11,0,0,0,6.69,1.07C88.15,60,89.27,64.06,89.44,65.5ZM28.11,66.72a1.09,1.09,0,0,0-.24-.24c-.07,0-7-4.87-6.48-13.27h0c4.17,3.17,16.51,10.64,40.35,10.64,2.52,0,5.18-.09,8-.27A22.42,22.42,0,0,0,69.92,70c-1,.1-2,.2-3.08.29a93.23,93.23,0,0,1-29.78-2.14c-2.26-.48-4.21-.9-6-1.12C30.14,66.91,29.15,66.81,28.11,66.72ZM40.69,21.37c.89.27.93.65,1,.77A47.6,47.6,0,0,0,43,29.32H39.73a2.7,2.7,0,1,0,0,2h3.89C44,32.6,44.51,33.83,45,35l-3.44.75a2.71,2.71,0,1,0,.14,2l4.17-.91c.53,1.07,1.1,2.09,1.7,3.07l-2.75,1.63A2.66,2.66,0,0,0,43,40.85a2.7,2.7,0,1,0,2.7,2.7,1.1,1.1,0,0,0,0-.18l3-1.77a37.1,37.1,0,0,0,2.78,3.56l-1.74,1.33a2.75,2.75,0,0,0-1-.21A2.71,2.71,0,1,0,51.4,49a2.66,2.66,0,0,0-.23-1.09l1.67-1.27a44.85,44.85,0,0,0,19.1,11.31,9.65,9.65,0,0,0-1.83,3.6c-32.09,2.22-46.5-9-48.66-10.87a81.13,81.13,0,0,0-1.31-13.38L31,35.86a3.33,3.33,0,0,0,2.19-1.27,3.26,3.26,0,0,0,.65-2.45l-.63-4.8a3.32,3.32,0,0,0-3.7-2.85,2.78,2.78,0,0,1,.19-.27C31.46,22.15,37.83,20.5,40.69,21.37Zm-2.76,9a.71.71,0,1,1-.7-.71A.71.71,0,0,1,37.93,30.32Zm1.93,6.61a.7.7,0,1,1-.7-.7A.7.7,0,0,1,39.86,36.93Zm3.87,6.62a.71.71,0,1,1-.7-.7A.7.7,0,0,1,43.73,43.55ZM49.4,49a.7.7,0,1,1-.7-.71A.7.7,0,0,1,49.4,49ZM10.91,29.38a1.34,1.34,0,0,1,.84-.48l18-2.38h.17a1.28,1.28,0,0,1,.77.26,1.25,1.25,0,0,1,.48.84l.64,4.8a1.31,1.31,0,0,1-.25.94,1.27,1.27,0,0,1-.84.48l-18,2.38a1.23,1.23,0,0,1-.94-.25,1.29,1.29,0,0,1-.48-.83l-.63-4.81A1.26,1.26,0,0,1,10.91,29.38Zm1.51,22.19c.32-1.42.62-2.76.78-4a49.39,49.39,0,0,0,.1-9.36l4.85-.65a73.83,73.83,0,0,1,1.24,15.54A17.23,17.23,0,0,0,24.8,66.48c-5.45-.32-11.36-.42-13.58-.45A41.38,41.38,0,0,1,12.42,51.57ZM86.32,72.3A2.23,2.23,0,0,0,85,71.19a1.26,1.26,0,0,0-1.13.37,3.34,3.34,0,0,0-.78,1.67l-4.06,1c-.78-.88-1.6-1.15-2.29-.73a2.72,2.72,0,0,0-1,1.56l-4.14.67c-.59-1-1.25-1.5-2-1.36-.31.06-1,.19-1.49,2.06H63.86c-.42-.69-1.15-1.52-2.12-1.38a2.15,2.15,0,0,0-1.56,1.38H55.85a2.61,2.61,0,0,0-1.29-1.18,1.46,1.46,0,0,0-1.19.12,3.23,3.23,0,0,0-1.06,1l-5-.37v-.86a1,1,0,0,0-.82-1c-.32-.06-7.83-1.4-9.77-1.4a1,1,0,0,0-.67.26l-3.77,3.4h-6.1c-.48-.66-1.28-1.46-2.25-1.14a3.19,3.19,0,0,0-1.38,1.14H18.3c-1.1-1.6-1.74-1.64-2-1.66a1.23,1.23,0,0,0-1,.45c-.23.29-.55.75-.79,1.11l-4.91-.83.33-6.94.73-.52c2.07,0,13.76.18,20.14,1,1.73.22,3.64.62,5.86,1.09a96.06,96.06,0,0,0,21.64,2.55c2.68,0,5.57-.11,8.72-.37C83.67,70.88,89.45,67.88,90.78,67h.07l.34,3.36A34.41,34.41,0,0,1,86.32,72.3Z"/></svg>