<svg xmlns="http://www.w3.org/2000/svg" data-name="Layer 1" viewBox="0 0 512 640" x="0px" y="0px"><title>9</title><path d="M255.65,92.38c-92.11.82-171.79,32.64-238.3,96.72-2.6,2.5-5.16,4.83-9,4.43-3.59-.37-6.45-2.24-7.66-5.6-1.38-3.86-.6-7.4,2.54-10.53A340.17,340.17,0,0,1,49,138.91C115,93,188.16,71,268.42,74c93,3.48,172.83,38.4,239.62,103.16,4.79,4.64,5.24,10.14,1.33,14.15s-9.55,3.71-14.35-1.1a332.14,332.14,0,0,0-74.07-55.68A337.41,337.41,0,0,0,274.56,92.42C268.27,92.07,262,92.38,255.65,92.38Z"/><path d="M256.48,146.56c77.41,1,144.45,27.64,200.29,81.68,3.71,3.59,5.15,7.57,2.57,12.2-2.37,4.26-6.3,5.21-10.87,4-1.8-.46-3-1.7-4.26-2.93-40.66-39.67-88.93-65-145-73.45-86.87-13.09-163,10.56-227.85,70.11-1.29,1.18-2.53,2.42-3.83,3.6-4.55,4.14-9.81,4.27-13.51.36s-3.46-9.15.86-13.51A244.78,244.78,0,0,1,80,206.47q75.51-57.88,170.65-59.9C252.63,146.52,254.55,146.56,256.48,146.56Z"/><path d="M256,219c56.12,1,105.1,20,146.34,58.55a21.38,21.38,0,0,1,5.44,7c1.83,4.16,2.09,7.74-1.92,10.72a9.35,9.35,0,0,1-12.45-.75c-13.67-14.07-29.54-25.11-46.75-34.36-73.55-39.52-166.74-26.31-226.38,32.1-5.24,5.13-10.58,5.69-14.7,1.55s-3.51-9.71,2.11-15C149.2,239.39,198.71,219.82,256,219Z"/><path d="M255.62,291.77c37.26,0.65,69.71,13.29,97,38.87,3.62,3.39,5.83,7.1,4,12.06-2.45,6.76-10.31,7.53-16.31,1.69-14.45-14-31.27-24.24-50.72-29.37C244.85,303.2,205.16,312.9,171,344.34c-3.79,3.49-7.73,4.83-12.31,2.24-4.08-2.29-4.93-6.11-3.93-10.45,0.49-2.15,2-3.67,3.5-5.13C185.58,305.18,218.16,292.42,255.62,291.77Z"/><path d="M256.4,438.23A36.78,36.78,0,0,1,219.15,401,37.27,37.27,0,1,1,256.4,438.23Z"/><text x="0" y="527" fill="#000000" font-size="5px" font-weight="bold" font-family="'Helvetica Neue', Helvetica, Arial-Unicode, Arial, Sans-serif">Created by Baboon designs</text><text x="0" y="532" fill="#000000" font-size="5px" font-weight="bold" font-family="'Helvetica Neue', Helvetica, Arial-Unicode, Arial, Sans-serif">from the Noun Project</text></svg>