<svg xmlns="http://www.w3.org/2000/svg" xmlns:xlink="http://www.w3.org/1999/xlink" version="1.1" x="0px" y="0px" viewBox="0 0 100 125" enable-background="new 0 0 100 100" xml:space="preserve"><path d="M37.113,94.244c0.24,0.103,0.489,0.152,0.738,0.152c0.577,0,1.137-0.266,1.5-0.751L75.799,45.05  c0.425-0.568,0.494-1.328,0.176-1.963c-0.319-0.635-0.967-1.036-1.677-1.036H58.286l5.713-34.263  c0.143-0.851-0.319-1.692-1.113-2.031c-0.787-0.342-1.721-0.097-2.238,0.599L24.202,54.949c-0.427,0.568-0.494,1.328-0.178,1.963  c0.319,0.635,0.967,1.036,1.677,1.036h16.009l-5.709,34.265C35.859,93.065,36.319,93.906,37.113,94.244z M45.774,56.381  c0.092-0.544-0.062-1.099-0.419-1.52c-0.355-0.421-0.879-0.663-1.43-0.663H29.452l29.585-39.442l-4.812,28.862  c-0.092,0.544,0.062,1.099,0.419,1.52c0.355,0.421,0.879,0.663,1.43,0.663h14.473L40.964,85.244L45.774,56.381z"/><text x="0" y="115" fill="#000000" font-size="5px" font-weight="bold" font-family="'Helvetica Neue', Helvetica, Arial-Unicode, Arial, Sans-serif">Created by Christian Baptist</text><text x="0" y="120" fill="#000000" font-size="5px" font-weight="bold" font-family="'Helvetica Neue', Helvetica, Arial-Unicode, Arial, Sans-serif">from the Noun Project</text></svg>