<svg xmlns="http://www.w3.org/2000/svg" xmlns:xlink="http://www.w3.org/1999/xlink" version="1.1" x="0px" y="0px" viewBox="0 0 100 125" style="enable-background:new 0 0 100 100;" xml:space="preserve"><path d="M11.125,49.023c1.222,0,1.782,0.537,2.556,1.281c0.854,0.819,1.915,1.839,3.942,1.839c2.027,0,3.089-1.02,3.942-1.839  c0.775-0.744,1.335-1.281,2.557-1.281c1.221,0,1.78,0.537,2.554,1.281c0.853,0.819,1.914,1.839,3.939,1.839  c1.425,0,2.369-0.506,3.102-1.091c-0.856,10.492-0.062,23.286,4.147,38.219c0.081,0.285,0.284,0.521,0.554,0.642  C38.549,89.971,38.688,90,38.827,90c0.151,0,0.301-0.034,0.44-0.102l10.871-5.324l10.51,5.318C60.79,89.964,60.944,90,61.1,90  c0.134,0,0.269-0.027,0.396-0.082c0.272-0.117,0.479-0.349,0.563-0.633c4.38-14.733,5.338-27.491,4.479-38.207  c0.729,0.573,1.665,1.065,3.07,1.065c2.028,0,3.09-1.02,3.944-1.839c0.775-0.744,1.335-1.281,2.559-1.281  c1.225,0,1.786,0.538,2.562,1.282c0.854,0.818,1.917,1.838,3.946,1.838s3.091-1.02,3.945-1.838c0.776-0.744,1.337-1.282,2.562-1.282  c0.552,0,1-0.447,1-1s-0.448-1-1-1c-2.029,0-3.092,1.02-3.946,1.839c-0.776,0.743-1.336,1.281-2.561,1.281  c-1.225,0-1.786-0.538-2.562-1.282c-0.854-0.818-1.917-1.838-3.946-1.838c-2.028,0-3.09,1.02-3.944,1.839  c-0.775,0.744-1.335,1.281-2.559,1.281c-1.222,0-1.781-0.537-2.556-1.281c-0.258-0.248-0.518-0.493-0.797-0.719  c-2.829-24.692-15.213-37.658-15.395-37.844c-0.003-0.003-0.006-0.003-0.009-0.006c-0.002-0.002-0.002-0.004-0.004-0.006  c-0.037-0.036-0.084-0.052-0.124-0.081c-0.066-0.048-0.129-0.103-0.203-0.132c-0.048-0.02-0.1-0.019-0.151-0.031  c-0.075-0.017-0.148-0.042-0.224-0.042c-0.061,0-0.12,0.022-0.18,0.034c-0.065,0.012-0.132,0.014-0.194,0.039  c-0.06,0.024-0.109,0.071-0.164,0.107c-0.054,0.035-0.114,0.058-0.161,0.105c-0.002,0.002-0.003,0.005-0.005,0.008  c-0.002,0.002-0.004,0.002-0.006,0.004c-0.271,0.274-6.682,6.883-11.353,19.978c-1.688,4.733-3.254,10.704-4.074,17.842  c-0.293,0.234-0.567,0.486-0.835,0.744c-0.774,0.744-1.334,1.281-2.555,1.281c-1.221,0-1.78-0.537-2.554-1.281  c-0.853-0.819-1.914-1.839-3.939-1.839c-2.027,0-3.089,1.02-3.942,1.839c-0.775,0.744-1.335,1.281-2.557,1.281  s-1.782-0.537-2.556-1.281c-0.854-0.819-1.915-1.839-3.942-1.839c-0.552,0-1,0.447-1,1S10.573,49.023,11.125,49.023z M60.477,87.564  l-9.332-4.722V13.745C56.589,20.786,72.434,45.916,60.477,87.564z M49.146,13.753v69.08l-9.676,4.739  C28.089,45.728,43.745,20.768,49.146,13.753z"/><text x="0" y="115" fill="#000000" font-size="5px" font-weight="bold" font-family="'Helvetica Neue', Helvetica, Arial-Unicode, Arial, Sans-serif">Created by Made</text><text x="0" y="120" fill="#000000" font-size="5px" font-weight="bold" font-family="'Helvetica Neue', Helvetica, Arial-Unicode, Arial, Sans-serif">from the Noun Project</text></svg>