<svg xmlns:dc="http://purl.org/dc/elements/1.1/" xmlns:cc="http://creativecommons.org/ns#" xmlns:rdf="http://www.w3.org/1999/02/22-rdf-syntax-ns#" xmlns:svg="http://www.w3.org/2000/svg" xmlns="http://www.w3.org/2000/svg" xmlns:sodipodi="http://sodipodi.sourceforge.net/DTD/sodipodi-0.dtd" xmlns:inkscape="http://www.inkscape.org/namespaces/inkscape" version="1.1" x="0px" y="0px" viewBox="0 0 100 125"><g transform="translate(0,-952.36218)"><path style="font-size:medium;font-style:normal;font-variant:normal;font-weight:normal;font-stretch:normal;text-indent:0;text-align:start;text-decoration:none;line-height:normal;letter-spacing:normal;word-spacing:normal;text-transform:none;direction:ltr;block-progression:tb;writing-mode:lr-tb;text-anchor:start;baseline-shift:baseline;opacity:1;color:#000000;fill:#000000;fill-opacity:1;stroke:none;stroke-width:2;marker:none;visibility:visible;display:inline;overflow:visible;enable-background:accumulate;font-family:Sans;-inkscape-font-specification:Sans" d="M 72.625 24 A 1.0059637 1.0059637 0 1 0 72.84375 26 C 76.53944 26 79.5 28.95072 79.5 32.625 C 79.5 36.29905 76.539456 39.25 72.84375 39.25 L 40.4375 39.25 A 1.0001 1.0001 0 1 0 40.4375 41.25 L 72.84375 41.25 C 77.61593 41.25 81.5 37.38435 81.5 32.625 C 81.5 27.86548 77.615946 24 72.84375 24 A 1.0001 1.0001 0 0 0 72.625 24 z M 31.28125 28.90625 A 1.0001 1.0001 0 1 0 31.28125 30.90625 L 34.625 30.90625 A 1.0001 1.0001 0 1 0 34.625 28.90625 L 31.28125 28.90625 z M 46.03125 28.90625 A 1.0001 1.0001 0 1 0 46.03125 30.90625 L 65.6875 30.90625 A 1.0001 1.0001 0 1 0 65.6875 28.90625 L 46.03125 28.90625 z M 25 39.25 A 1.001098 1.001098 0 1 0 25.09375 41.25 L 29.125 41.25 A 1.0001 1.0001 0 1 0 29.125 39.25 L 25.09375 39.25 A 1.0001 1.0001 0 0 0 25 39.25 z M 7.8125 50.34375 A 1.0043849 1.0043849 0 0 0 8 52.34375 L 12.09375 52.34375 A 1.0001 1.0001 0 1 0 12.09375 50.34375 L 8 50.34375 A 1.0001 1.0001 0 0 0 7.8125 50.34375 z M 23.5625 50.34375 A 1.0043849 1.0043849 0 0 0 23.75 52.34375 L 82.25 52.34375 C 87.094922 52.34375 91 56.2438 91 61.0625 C 91 65.8813 87.094909 69.75 82.25 69.75 A 1.0001 1.0001 0 1 0 82.25 71.75 C 88.171403 71.75 93 66.9665 93 61.0625 C 93 55.1586 88.17139 50.34375 82.25 50.34375 L 23.75 50.34375 A 1.0001 1.0001 0 0 0 23.5625 50.34375 z M 26.28125 61.4375 A 1.001098 1.001098 0 1 0 26.375 63.4375 L 31.40625 63.4375 A 1.0001 1.0001 0 1 0 31.40625 61.4375 L 26.375 61.4375 A 1.0001 1.0001 0 0 0 26.28125 61.4375 z M 42.71875 61.4375 A 1.001098 1.001098 0 1 0 42.8125 63.4375 L 65.375 63.4375 C 68.314641 63.4375 70.65625 65.79755 70.65625 68.71875 C 70.65625 71.63985 68.314641 74 65.375 74 A 1.0001 1.0001 0 1 0 65.375 76 C 69.391121 76 72.65625 72.72515 72.65625 68.71875 C 72.65625 64.71225 69.391121 61.4375 65.375 61.4375 L 42.8125 61.4375 A 1.0001 1.0001 0 0 0 42.71875 61.4375 z " transform="translate(0,952.36218)"/></g><text x="0" y="115" fill="#000000" font-size="5px" font-weight="bold" font-family="'Helvetica Neue', Helvetica, Arial-Unicode, Arial, Sans-serif">Created by cindy clegane</text><text x="0" y="120" fill="#000000" font-size="5px" font-weight="bold" font-family="'Helvetica Neue', Helvetica, Arial-Unicode, Arial, Sans-serif">from the Noun Project</text></svg>