<svg xmlns="http://www.w3.org/2000/svg" xmlns:xlink="http://www.w3.org/1999/xlink" version="1.1" x="0px" y="0px" viewBox="0 0 100 125" style="enable-background:new 0 0 100 100;" xml:space="preserve"><g><g><path d="M56.5,98.4H43.5c-0.6,0-1.2-0.5-1.2-1.2V84.1H24.1c-1.1,0-2-0.5-2.5-1.5c-0.5-0.9-0.5-2,0-2.9l13.2-22.9    h-8.1c-0.4,0-0.8-0.2-1-0.6c-0.2-0.4-0.2-0.8,0-1.2L37.9,34h-5.2c-0.4,0-0.8-0.2-1-0.6c-0.2-0.4-0.2-0.8,0-1.2L49,2.2    c0.2-0.4,0.6-0.6,1-0.6c0.4,0,0.8,0.2,1,0.6l17.3,30c0.2,0.4,0.2,0.8,0,1.2c-0.2,0.4-0.6,0.6-1,0.6h-5.2l12.2,21.1    c0.2,0.4,0.2,0.8,0,1.2c-0.2,0.4-0.6,0.6-1,0.6h-8.1l13.2,22.9c0.5,0.9,0.5,2,0,2.9c-0.5,0.9-1.5,1.5-2.5,1.5H57.7v13.1    C57.7,97.8,57.2,98.4,56.5,98.4z M44.6,96h10.8V82.9c0-0.6,0.5-1.2,1.2-1.2h19.4c0.3,0,0.5-0.2,0.5-0.3c0.1-0.1,0.2-0.3,0-0.6    L62.2,56.3c-0.2-0.4-0.2-0.8,0-1.2c0.2-0.4,0.6-0.6,1-0.6h8.1L59.1,33.4c-0.2-0.4-0.2-0.8,0-1.2c0.2-0.4,0.6-0.6,1-0.6h5.2L50,5.1    L34.7,31.7h5.2c0.4,0,0.8,0.2,1,0.6c0.2,0.4,0.2,0.8,0,1.2L28.7,54.5h8.1c0.4,0,0.8,0.2,1,0.6c0.2,0.4,0.2,0.8,0,1.2L23.6,80.9    c-0.2,0.3,0,0.5,0,0.6c0.1,0.1,0.2,0.3,0.5,0.3h19.4c0.6,0,1.2,0.5,1.2,1.2V96z"/></g><g><path d="M28,98.4h-9.9c-0.6,0-1.2-0.5-1.2-1.2v-8.3c0-0.7-0.6-1.3-1.3-1.3H1.2c-0.4,0-0.8-0.2-1-0.6    c-0.2-0.4-0.2-0.8,0-1.2l10.9-18.9H5.4c-0.4,0-0.8-0.2-1-0.6c-0.2-0.4-0.2-0.8,0-1.2l9-15.6H10c-0.4,0-0.8-0.2-1-0.6    c-0.2-0.4-0.2-0.8,0-1.2l13.1-22.8c0.2-0.4,0.6-0.6,1-0.6c0.4,0,0.8,0.2,1,0.6l10.5,18.2c0.3,0.6,0.1,1.3-0.4,1.6    c-0.6,0.3-1.3,0.1-1.6-0.4L23.1,28L12,47.2h3.5c0.4,0,0.8,0.2,1,0.6c0.2,0.4,0.2,0.8,0,1.2l-9,15.6h5.6c0.4,0,0.8,0.2,1,0.6    c0.2,0.4,0.2,0.8,0,1.2L3.2,85.2h12.4c2,0,3.7,1.6,3.7,3.7V96h7.6v-5.6c0-0.6,0.5-1.2,1.2-1.2c0.6,0,1.2,0.5,1.2,1.2v6.8    C29.2,97.8,28.7,98.4,28,98.4z"/></g><g><path d="M81.9,98.4H72c-0.6,0-1.2-0.5-1.2-1.2v-6.8c0-0.6,0.5-1.2,1.2-1.2c0.6,0,1.2,0.5,1.2,1.2V96h7.6v-7.1    c0-2,1.6-3.7,3.7-3.7h12.4L85.9,66.3c-0.2-0.4-0.2-0.8,0-1.2c0.2-0.4,0.6-0.6,1-0.6h5.6l-9-15.6c-0.2-0.4-0.2-0.8,0-1.2    c0.2-0.4,0.6-0.6,1-0.6H88L76.9,28l-9.5,16.4c-0.3,0.6-1,0.8-1.6,0.4c-0.6-0.3-0.7-1-0.4-1.6l10.5-18.2c0.2-0.4,0.6-0.6,1-0.6    c0.4,0,0.8,0.2,1,0.6l13.1,22.8c0.2,0.4,0.2,0.8,0,1.2c-0.2,0.4-0.6,0.6-1,0.6h-3.5l9,15.6c0.2,0.4,0.2,0.8,0,1.2    c-0.2,0.4-0.6,0.6-1,0.6h-5.6l10.9,18.9c0.2,0.4,0.2,0.8,0,1.2c-0.2,0.4-0.6,0.6-1,0.6H84.4c-0.7,0-1.3,0.6-1.3,1.3v8.3    C83,97.8,82.5,98.4,81.9,98.4z"/></g></g><text x="0" y="115" fill="#000000" font-size="5px" font-weight="bold" font-family="'Helvetica Neue', Helvetica, Arial-Unicode, Arial, Sans-serif">Created by Andrei Yushchenko</text><text x="0" y="120" fill="#000000" font-size="5px" font-weight="bold" font-family="'Helvetica Neue', Helvetica, Arial-Unicode, Arial, Sans-serif">from the Noun Project</text></svg>