<svg xmlns="http://www.w3.org/2000/svg" xmlns:xlink="http://www.w3.org/1999/xlink" version="1.1" x="0px" y="0px" viewBox="0 0 1024 1280" style="enable-background:new 0 0 1024 1024;" xml:space="preserve"><g><path d="M883.2,929.2H140.8c-25.4,0-46-20.6-46-46V140.8c0-25.4,20.6-46,46-46h742.5c25.4,0,46,20.6,46,46v742.5   C929.2,908.6,908.6,929.2,883.2,929.2z M140.8,124.8c-8.8,0-16,7.2-16,16v742.5c0,8.8,7.2,16,16,16h742.5c8.8,0,16-7.2,16-16V140.8   c0-8.8-7.2-16-16-16H140.8z"/><path d="M519.6,587H329V235h190.6c46.6,0,90.5,18.3,123.7,51.4c33.2,33.2,51.4,77.1,51.4,123.7   c0,46.5-18.7,91.9-51.4,124.6C609.5,568.4,565.6,587,519.6,587z M359,557h160.6c38,0,74.4-15.5,102.5-43.5   c27.1-27.1,42.6-64.8,42.6-103.4c0-80-65.1-145.1-145.1-145.1H359V557z"/><rect x="329" y="250" width="30" height="524"/></g><text x="0" y="1039" fill="#000000" font-size="5px" font-weight="bold" font-family="'Helvetica Neue', Helvetica, Arial-Unicode, Arial, Sans-serif">Created by IconPai</text><text x="0" y="1044" fill="#000000" font-size="5px" font-weight="bold" font-family="'Helvetica Neue', Helvetica, Arial-Unicode, Arial, Sans-serif">from the Noun Project</text></svg>