<svg xmlns="http://www.w3.org/2000/svg" data-name="Livello 2" viewBox="0 0 50 62.5" x="0px" y="0px"><title>love-</title><path d="M40.412,19.557A11.259,11.259,0,0,0,20,16.759l19.67,10.918A11.175,11.175,0,0,0,40.412,19.557Z" fill="none"/><path d="M42.163,38.785h-21.2l8.557-15.414a.51.51,0,0,0,.049-.157L39.627,28.8a.5.5,0,0,0,.68-.2A12.234,12.234,0,0,0,35.93,12.18l.9-1.994a.5.5,0,1,0-.912-.412L35.05,11.7a12.234,12.234,0,0,0-16.182,5.01.5.5,0,0,0,.2.679l9.684,5.375a.479.479,0,0,0-.107.125l-8.826,15.9H7.955a.5.5,0,1,0,0,1H42.163a.5.5,0,0,0,0-1ZM26.489,11.83A11.26,11.26,0,0,1,39.665,27.677L20,16.759A11.176,11.176,0,0,1,26.489,11.83Z"/><text x="0" y="65" fill="#000000" font-size="5px" font-weight="bold" font-family="'Helvetica Neue', Helvetica, Arial-Unicode, Arial, Sans-serif">Created by Nicola</text><text x="0" y="70" fill="#000000" font-size="5px" font-weight="bold" font-family="'Helvetica Neue', Helvetica, Arial-Unicode, Arial, Sans-serif">from the Noun Project</text></svg>