<svg xmlns="http://www.w3.org/2000/svg" xmlns:xlink="http://www.w3.org/1999/xlink" version="1.1" x="0px" y="0px" viewBox="0 0 96 120" enable-background="new 0 0 96 96" xml:space="preserve"><g><path d="M88.856,12.689c-0.9-3.211-7.602-5.532-16.014-5.532c-8.326,0-15.014,2.291-15.99,5.46   c-0.115,0.173-0.172,0.369-0.166,0.57l0.743,24.908H38.57l0.741-24.904c0.006-0.173-0.043-0.345-0.146-0.512   c-0.913-3.205-7.61-5.521-16.01-5.521c-8.319,0-15.007,2.288-15.989,5.454c-0.121,0.184-0.18,0.398-0.165,0.618l5,67.188   c0.039,0.519,0.478,0.926,0.998,0.926h1.188v6.5c0,0.551,0.448,1,1,1h15.938c0.552,0,1-0.449,1-1v-6.5h2.188   c0.515,0,0.942-0.386,0.995-0.899l2.746-27.226h19.893l2.746,27.225c0.051,0.513,0.479,0.9,0.995,0.9h2.188v6.5   c0,0.551,0.448,1,1,1h15.938c0.552,0,1-0.449,1-1v-6.5h1.186c0.519,0,0.957-0.406,0.998-0.926l4.974-66.908   c0.006-0.025,0.01-0.05,0.012-0.072l0.016-0.212C89.01,13.045,88.962,12.865,88.856,12.689z M23.155,9.157   c6.611,0,11.428,1.438,13.3,3H9.854C11.729,10.595,16.547,9.157,23.155,9.157z M30.125,86.844H16.187v-5.5h13.938V86.844z    M36.152,52.138l-2.746,27.206H13.928L9.072,14.157h28.21L36.152,52.138z M38.18,51.219l0.332-11.125h18.977l0.331,11.125H38.18z    M72.843,9.157c6.609,0,11.427,1.438,13.301,3H59.542C61.417,10.595,66.233,9.157,72.843,9.157z M79.812,86.844H65.874v-5.5h13.938   V86.844z M82.071,79.344H62.592l-2.741-27.163l-1.135-38.024h28.205L82.071,79.344z"/><path d="M55.728,44.657H40.271c-0.552,0-1,0.449-1,1s0.448,1,1,1h15.459c0.552,0,1-0.449,1-1S56.28,44.657,55.728,44.657z"/></g><text x="0" y="111" fill="#000000" font-size="5px" font-weight="bold" font-family="'Helvetica Neue', Helvetica, Arial-Unicode, Arial, Sans-serif">Created by userproject1013</text><text x="0" y="116" fill="#000000" font-size="5px" font-weight="bold" font-family="'Helvetica Neue', Helvetica, Arial-Unicode, Arial, Sans-serif">from the Noun Project</text></svg>