<svg xmlns="http://www.w3.org/2000/svg" xmlns:xlink="http://www.w3.org/1999/xlink" version="1.1" x="0px" y="0px" viewBox="0 0 69 86.25" style="enable-background:new 0 0 69 69;" xml:space="preserve"><g><path d="M25.11,50.035c-0.35-1.7-1.86-2.99-3.66-2.99c-1.8,0-3.31,1.29-3.65,2.99c-0.05,0.24-0.08,0.49-0.08,0.75   s0.03,0.51,0.08,0.75c0.34,1.71,1.84,2.99,3.65,2.99c1.81,0,3.32-1.28,3.66-2.99c0.05-0.24,0.08-0.49,0.08-0.75   S25.16,50.275,25.11,50.035z M23.56,51.535c-0.31,0.87-1.13,1.49-2.11,1.49c-0.97,0-1.79-0.62-2.1-1.49   c-0.08-0.23-0.13-0.49-0.13-0.75s0.05-0.52,0.13-0.75c0.31-0.87,1.13-1.49,2.1-1.49c0.98,0,1.8,0.62,2.11,1.49   c0.08,0.23,0.13,0.49,0.13,0.75S23.64,51.305,23.56,51.535z"/><g><path d="M65.75,44.325c-0.41,0-0.75,0.33-0.75,0.75v4.97h-7.11c0.87-0.89,1.4-2.1,1.4-3.44v-24.73c0-3.72-3.02-6.75-6.74-6.75    h-8.22v-1.26c0-1.76-1.42-3.18-3.17-3.18H20.27c-1.75,0-3.18,1.42-3.18,3.18v1.26h-1.28c-4.67,0-8.92,2.4-11.36,6.4    c-1.27,2.09-1.95,4.49-1.95,6.95v18.13c0,2.72,2.2,4.93,4.91,4.93h6.56c0.21,2.16,1.34,4.06,3,5.28H3.25    c-0.41,0-0.75,0.34-0.75,0.75c0,0.42,0.34,0.75,0.75,0.75h62.5c0.42,0,0.75-0.33,0.75-0.75v-12.49    C66.5,44.655,66.17,44.325,65.75,44.325z M18.59,13.865c0-0.93,0.76-1.68,1.68-1.68h20.89c0.92,0,1.67,0.75,1.67,1.68v1.26H18.59    V13.865z M7.41,50.035c-1.88,0-3.41-1.54-3.41-3.43v-1.77h12.86c-1.6,1.23-2.68,3.09-2.89,5.2H7.41z M21.45,56.815    c-3.33,0-6.02-2.71-6.02-6.03c0-7.8,12.04-8.07,12.04,0C27.47,54.105,24.79,56.815,21.45,56.815z M26.04,44.835h12.13v5.2h-9.24    C28.72,47.925,27.64,46.055,26.04,44.835z M47.56,56.815H25.93c1.66-1.22,2.79-3.12,3-5.28h18.63V56.815z M51.15,56.815h-2.09    v-5.28h2.09V56.815z M51.15,50.035H39.67v-25.83c0-0.85,0.69-1.54,1.53-1.54h8.42c0.85,0,1.53,0.69,1.53,1.54V50.035z     M49.62,21.165H41.2c-1.67,0-3.03,1.36-3.03,3.04v19.13c-0.15,0-30.34-0.01-34.17,0v-14.86c0-2.18,0.6-4.31,1.73-6.17    c2.17-3.55,5.93-5.68,10.08-5.68h36.74c2.89,0,5.24,2.36,5.24,5.25v21.46h-5.14v-19.13C52.65,22.525,51.29,21.165,49.62,21.165z     M57.79,44.835v1.77c0,1.89-1.53,3.43-3.42,3.43h-1.72v-5.2H57.79z M65,56.815H52.65v-5.28c8.94,0.01,11.53,0.01,12.17,0.01    c0,0,0.05,0,0.18,0V56.815z"/><path d="M49.51,45.975c0-0.42-0.33-0.75-0.75-0.75h-6.7c-0.41,0-0.75,0.33-0.75,0.75c0,0.41,0.34,0.75,0.75,0.75h6.7    C49.18,46.725,49.51,46.385,49.51,45.975z"/><path d="M42.06,43.065h6.7c0.42,0,0.75-0.34,0.75-0.75s-0.33-0.75-0.75-0.75h-6.7c-0.41,0-0.75,0.34-0.75,0.75    S41.65,43.065,42.06,43.065z"/><path d="M45.41,25.495c-2.13,0-3.86,1.73-3.86,3.87c0,2.13,1.73,3.87,3.86,3.87s3.87-1.74,3.87-3.87    C49.28,27.225,47.54,25.495,45.41,25.495z M45.41,31.735c-1.3,0-2.36-1.06-2.36-2.37s1.06-2.37,2.36-2.37    c1.31,0,2.37,1.06,2.37,2.37S46.72,31.735,45.41,31.735z"/><path d="M34.04,22.365H9.67c-0.42,0-0.75,0.34-0.75,0.75v12.56c0,0.41,0.33,0.75,0.75,0.75h24.37c0.41,0,0.75-0.34,0.75-0.75    v-12.56C34.79,22.705,34.45,22.365,34.04,22.365z M33.29,34.925H10.42v-11.06h22.87V34.925z"/></g></g><text x="0" y="84" fill="#000000" font-size="5px" font-weight="bold" font-family="'Helvetica Neue', Helvetica, Arial-Unicode, Arial, Sans-serif">Created by Vectors Point</text><text x="0" y="89" fill="#000000" font-size="5px" font-weight="bold" font-family="'Helvetica Neue', Helvetica, Arial-Unicode, Arial, Sans-serif">from the Noun Project</text></svg>