<svg xmlns:dc="http://purl.org/dc/elements/1.1/" xmlns:cc="http://creativecommons.org/ns#" xmlns:rdf="http://www.w3.org/1999/02/22-rdf-syntax-ns#" xmlns:svg="http://www.w3.org/2000/svg" xmlns="http://www.w3.org/2000/svg" xmlns:sodipodi="http://sodipodi.sourceforge.net/DTD/sodipodi-0.dtd" xmlns:inkscape="http://www.inkscape.org/namespaces/inkscape" version="1.1" x="0px" y="0px" viewBox="0 0 100 125"><g transform="translate(0,-952.36218)"><path style="text-indent:0;text-transform:none;direction:ltr;block-progression:tb;baseline-shift:baseline;color:#000000;enable-background:accumulate;" d="m 39.003973,958.36213 c -5.20043,0 -11.53618,1.4992 -16.69238,4.0625 -4.22059,1.9529 -9.227909,6.0063 -9.315219,10.8435 l 0,41.78077 c -0.96413,5.4421 -4.0676203,10.53 -7.7210103,14.2185 -0.25619,0.2672 -0.34443,0.6831 -0.21882,1.0313 3.09667,8.7235 9.0022103,13.0226 16.9737193,14.8123 7.9715,1.7897 18.00986,1.2784 30.00877,0.7812 0.44573,-0.02 0.8545,-0.3742 0.93779,-0.8124 1.36896,-6.8056 1.73328,-13.8234 1.87554,-21.1873 1.5661,7.367 3.39837,11.7945 6.25183,17.4686 0.23766,0.466 0.87758,0.6743 1.34414,0.4375 4.12021,-2.0483 8.44735,-5.2539 9.53403,-10.6562 0.0513,-0.2305 0.0174,-0.479 -0.0937,-0.6874 -0.60631,-1.0852 -0.81232,-1.5193 -1.32852,-2.6874 1.42154,-1.5578 2.63266,-3.0109 3.36036,-4.4375 0.16282,-0.3394 0.1121,-0.7703 -0.12503,-1.0626 -4.31393,-6.9998 -8.54168,-13.7561 -7.78353,-20.906 1.4013,-0.7599 3.38316,-0.7939 4.75139,-1.125 3.96988,-1.09511 5.87681,-4.56127 6.25183,-7.96857 1.2e-4,-2.9502 0,-5.9187 0,-8.8752 0.59803,-0.4286 1.13431,-0.8606 1.59421,-1.3124 2.09051,3.2413 4.890464,5.0166 7.721014,5.5311 3.03949,0.5525 6.05902,-0.2695 8.28368,-1.9374 0.45714,-0.3373 0.52004,-1.0918 0.12503,-1.5 -2.05953,-2.0589 -4.41047,-3.9245 -7.12708,-4.875 -2.43145,-0.7994 -4.59828,-0.716 -6.845754,-0.1875 0.4636,-0.8995 0.83674,-1.8532 1.18784,-2.9061 0.23448,-0.6313 -0.36086,-1.4069 -1.03154,-1.3438 -0.38148,0.041 -0.72631,0.3224 -0.844,0.6875 -0.76692,2.3001 -1.45042,3.8209 -3.0634,5.2812 l 0,-10.5311 c 0.007,-0.1607 -0.0254,-0.323 -0.0937,-0.4687 -1.06149,-1.6131 -2.74152,-1.9022 -4.40755,-2.0313 -1.91176,-0.019 -3.35734,0.7658 -4.40754,2.0313 -0.0684,0.1457 -0.10091,0.3082 -0.0938,0.469 l 0,18.8747 c 0,1.1272 -1.09701,2.4678 -3.00088,2.8437 l 0,-18.7498 c -0.0416,-5.433 -5.19024,-8.7674 -9.31522,-10.8435 -4.72542,-2.2223 -11.41102,-4.0054 -16.69244,-4.0625 z m 0,3.5312 c 4.39018,0 8.78474,0.74 11.97226,2.1563 2.49309,1.1887 4.99509,3.1555 5.03272,5.8436 0,2.7885 -1.8837,4.8754 -5.06399,6.4062 -3.18028,1.5308 -7.56008,2.3437 -11.94099,2.3437 -4.38091,0 -8.7607,-0.8129 -11.94098,-2.3437 -3.18028,-1.5308 -5.06399,-3.6177 -5.06399,-6.4062 0.2618,-3.0122 2.70639,-4.7927 5.03272,-5.8436 3.18753,-1.4163 7.58208,-2.1563 11.97225,-2.1563 z m -16.62986,2.7812 c -1.42382,1.3742 -2.35179,3.5639 -2.37569,5.2187 0,3.7116 2.61761,6.4681 6.18931,8.1875 3.57169,1.7191 8.19452,2.5623 12.81624,2.5623 4.62173,0 9.24456,-0.8432 12.81626,-2.5623 3.57169,-1.7194 6.1893,-4.4759 6.1893,-8.1875 -0.25057,-2.229 -0.98636,-3.8464 -2.37569,-5.2187 3.17954,1.8305 7.2832,4.7103 7.34589,8.0624 -3.64921,9.5237 -15.91712,11.108 -23.97576,11.1561 -9.70227,0 -20.21847,-2.9279 -23.97576,-11.2499 0.0771,-3.9181 4.25346,-6.2948 7.3459,-7.9686 z m 16.62986,0.2187 c -4.08452,0 -7.17483,0.4983 -9.34648,1.3126 -1.08582,0.407 -1.95681,0.871 -2.5945,1.4687 -0.63771,0.5977 -1.06282,1.3855 -1.06282,2.2187 0,0.8334 0.42511,1.5898 1.06282,2.1875 0.63769,0.5976 1.50868,1.0616 2.5945,1.4687 2.17165,0.8141 5.26196,1.3437 9.34648,1.3437 4.08453,0 7.17483,-0.5296 9.34648,-1.3437 1.08583,-0.4071 1.95682,-0.8711 2.59451,-1.4687 0.63771,-0.5976 1.06282,-1.3541 1.06282,-2.1875 0,-0.8332 -0.42511,-1.621 -1.06282,-2.2187 -0.63769,-0.5977 -1.50868,-1.0618 -2.59451,-1.4687 -2.17165,-0.8142 -5.26195,-1.3126 -9.34648,-1.3126 z m 0,2 c 3.91782,0 6.82927,0.4704 8.65879,1.1563 0.91475,0.3429 1.5442,0.754 1.90681,1.0937 0.36259,0.3399 0.43762,0.5834 0.43762,0.75 0,0.1668 -0.075,0.379 -0.43762,0.7188 -0.36261,0.3398 -0.99206,0.7507 -1.90681,1.0937 -1.82952,0.6858 -4.74097,1.1874 -8.65879,1.1874 -3.91782,0 -6.82927,-0.5017 -8.65878,-1.1874 -0.91475,-0.3429 -1.54421,-0.7539 -1.90681,-1.0937 -0.36259,-0.3398 -0.43762,-0.552 -0.43762,-0.7188 0,-0.1666 0.075,-0.4101 0.43762,-0.75 0.3626,-0.3398 0.99206,-0.7508 1.90681,-1.0937 1.82951,-0.6859 4.74096,-1.1563 8.65878,-1.1563 z m 33.5098,2.9063 c 0.55321,0 1.08525,0.1026 1.53171,0.25 -1.00051,0.4716 -2.06291,0.4716 -3.0634,0 0.44645,-0.1474 0.97848,-0.25 1.53169,-0.25 z m -2.50072,1.9686 c 1.58184,0.7368 3.41961,0.7368 5.00145,0 -0.009,6.7885 0,13.5333 0,20.3124 -0.3594,3.1771 -1.84079,5.47576 -4.75138,6.21856 -1.80434,0.3267 -3.47257,0.532 -5.03273,1.125 -0.65114,0.4931 -1.00133,0.93791 -1.2191,1.59361 -1.0123,9.0586 0.97538,20.8709 5.93923,29.9997 -0.9239,4.0355 -4.0427,6.6354 -7.50219,8.4999 -3.65269,-7.3534 -5.53157,-12.3649 -7.43967,-26.5933 -0.0327,-0.5236 -0.53906,-0.9702 -1.06282,-0.9375 -0.59207,0.023 -0.89346,0.6261 -0.93777,1.1875 -7e-5,11.5717 -0.0224,21.2126 -1.84429,30.7495 -11.61209,0.4826 -21.34909,0.8682 -28.69589,-0.7813 -7.35496,-1.651 -12.348169,-5.2171 -15.2857193,-12.9998 3.5068803,-4.317 7.7221203,-9.4307 7.8147903,-15.0935 l 0,-38.87447 c 1.947799,2.5057 4.328859,4.4472 7.002039,5.9062 l 0,23.81207 c -0.007,0.5284 0.47178,1.0143 1.0003,1.0143 0.52851,0 1.00775,-0.4859 1.00029,-1.0143 l 0,-22.84337 c 2.53914,1.117 5.27994,1.8703 8.09611,2.3125 -0.002,0.03 -10e-4,0.064 0,0.094 l -0.0937,6.4059 c -0.007,0.5283 0.47176,1 1.00029,1 0.52852,0 1.00777,-0.4717 1.00029,-1 l 0.0937,-6.2187 c 1.63081,0.1746 3.26687,0.2499 4.90768,0.2499 5.1015,0 10.46056,-0.7738 15.12943,-2.7186 3.51527,-1.4643 6.63855,-3.6139 8.87759,-6.6249 l 0,16.6247 c 5e-5,0.5236 0.47655,1 1.0003,1 3.44303,0 6.00176,-2.3405 6.00176,-4.9999 z m 16.911184,9.4375 c 1.87445,0.6557 3.6308,1.9463 5.28281,3.4374 -1.62987,0.8533 -3.51989,1.3602 -5.50161,1 -2.15436,-0.3915 -4.300264,-1.6895 -6.064274,-4.1874 2.092944,-0.9235 4.309814,-0.9272 6.283074,-0.25 z M 66.136913,1011.674 c 1.42335,3.7314 3.14532,7.7976 5.68916,11.1873 -0.71983,1.3085 -1.40476,2.1541 -2.15688,2.9375 -1.81711,-4.4773 -2.99063,-9.3894 -3.53228,-14.1248 z" fill="#000000" fill-opacity="1" stroke="none" marker="none" visibility="visible" display="inline" overflow="visible"/></g><text x="0" y="115" fill="#000000" font-size="5px" font-weight="bold" font-family="'Helvetica Neue', Helvetica, Arial-Unicode, Arial, Sans-serif">Created by arif fajar yulianto</text><text x="0" y="120" fill="#000000" font-size="5px" font-weight="bold" font-family="'Helvetica Neue', Helvetica, Arial-Unicode, Arial, Sans-serif">from the Noun Project</text></svg>