<svg xmlns="http://www.w3.org/2000/svg" xmlns:xlink="http://www.w3.org/1999/xlink" version="1.1" x="0px" y="0px" viewBox="0 0 100 125" style="enable-background:new 0 0 100 100;" xml:space="preserve"><g><g><path d="M50,22.7c-6.3,0-11.4-5.1-11.4-11.4C38.6,5.1,43.7,0,50,0c6.3,0,11.4,5.1,11.4,11.4    C61.3,17.6,56.2,22.7,50,22.7z M50,2.3c-5,0-9.1,4.1-9.1,9.1c0,5,4.1,9.1,9.1,9.1c5,0,9.1-4.1,9.1-9.1C59.1,6.3,55,2.3,50,2.3z"/></g><g><path d="M68.5,100h-1.2c-3.4,0-6.2-2.8-6.2-6.2v-15L48.7,64L27.6,97c-1.2,1.9-3.3,3-5.5,3c-2.4,0-4.6-1.3-5.7-3.4    c-1.2-2.1-1.1-4.6,0.1-6.6l18.6-30.2c0.6-1,0.9-2.1,0.9-3.2V44.5c0.1-5.6,1.3-10.5,3.5-14.7c1.8-3.4,5.3-5.6,9.2-5.6    c3.6,0,7,1.9,8.8,4.9l5.1,8.2l16.2,0c0,0,0,0,0,0c1.5,0,3,0.6,4.1,1.7c1.1,1.1,1.7,2.5,1.7,4.1c0,3.2-2.6,5.8-5.8,5.8H56.5    l-9.1-10c-0.4-0.5-0.4-1.2,0.1-1.6c0.5-0.4,1.2-0.4,1.6,0.1l8.4,9.2h21.2c1.9,0,3.5-1.6,3.5-3.5c0-0.9-0.4-1.8-1-2.5    c-0.7-0.7-1.5-1-2.5-1c0,0,0,0,0,0l-17.4,0l-5.7-9.3c-1.5-2.4-4.1-3.9-6.9-3.9c-3.1,0-5.8,1.7-7.2,4.3c-2,3.9-3.1,8.5-3.2,13.7    l0,12.1c0,1.5-0.4,3.1-1.2,4.4L18.4,91.2c-0.8,1.3-0.9,3-0.1,4.4c0.8,1.4,2.2,2.2,3.8,2.2c1.5,0,2.8-0.7,3.6-2l22.8-35.5L63.3,78    v15.8c0,2.2,1.8,4,4,4h1.2c2.2,0,4-1.8,4-4V75.6L55.9,55.2v-4.9c0-0.6,0.5-1.1,1.1-1.1c0.6,0,1.1,0.5,1.1,1.1v4.1l16.6,20.3v19    C74.7,97.2,71.9,100,68.5,100z"/></g></g><text x="0" y="115" fill="#000000" font-size="5px" font-weight="bold" font-family="'Helvetica Neue', Helvetica, Arial-Unicode, Arial, Sans-serif">Created by Andrei Yushchenko</text><text x="0" y="120" fill="#000000" font-size="5px" font-weight="bold" font-family="'Helvetica Neue', Helvetica, Arial-Unicode, Arial, Sans-serif">from the Noun Project</text></svg>