<svg xmlns="http://www.w3.org/2000/svg" xmlns:xlink="http://www.w3.org/1999/xlink" version="1.1" x="0px" y="0px" viewBox="0 0 100 125" style="enable-background:new 0 0 100 100;" xml:space="preserve"><path d="M83.7875977,26.7871094c-0.269043-0.2695312-0.5327148-0.543457-0.7949219-0.815918  c-1.3901367-1.4453125-2.8276367-2.9399414-4.9404297-3.581543l-38.628418-11.7329102  c-5.3808594-1.6333008-11.1967773-0.1787109-15.1748047,3.7983398l-3.6665039,3.6669922  c-2.8730469,2.8725586-4.4550781,6.6918945-4.4550781,10.7543945s1.5820312,7.8818359,4.4550781,10.7543945l5.0530396,5.0530396  c-0.2266235,0.4076538-0.3587036,0.8626709-0.3587036,1.34198c0,0.7421875,0.2890625,1.4404297,0.8144531,1.965332  l1.2282104,1.2282104l-9.2750854,4.9534302C13.0825195,56.8232422,10,61.9638672,10,67.5888672v5.1855469  c0,8.3867188,6.8227539,15.2094727,15.2089844,15.2094727h7.1474609C32.6907959,89.1439209,33.75,90,35.0161133,90h19.4541016  c1.2661133,0,2.3250122-0.8560791,2.6592407-2.0161133h5.7357788c8.3862305,0,15.2089844-6.8227539,15.2089844-15.2094727  V56.8744507c0.0253296-0.020752,0.0564575-0.029541,0.0800781-0.0531616l7.6782227-7.6782227  c5.7895508-5.7895508,5.5322266-14.7788086-0.5986328-20.9101562L83.7875977,26.7871094z M27.5053711,45.4741211  l4.5214844-4.5214844c0.1518555-0.1518555,0.3515625-0.2280273,0.5512695-0.2280273s0.3994141,0.0761719,0.5512695,0.2280273  l2.5272217,2.5274048l-5.6243896,5.6239624l-2.5268555-2.5268555c-0.1474609-0.1474609-0.2285156-0.3432617-0.2285156-0.5512695  C27.2768555,45.8173828,27.3579102,45.621582,27.5053711,45.4741211z M62.8652344,34.2084961h-2.0449219  c-0.3813477,0-0.7617188-0.0073242-1.1401367-0.0146484c-2.0053711-0.0400391-4.078125-0.0795898-6.0249023,0.9609375  l-15.3161011,8.1796875l-3.7957153-3.7958984c-0.9145508-0.9145508-2.3083496-1.0479736-3.3739014-0.4193115l-4.7794189-4.7794189  c-1.4067383-1.4067383-2.1811523-3.2768555-2.1811523-5.2661133c0-1.9887695,0.7744141-3.8588867,2.1811523-5.265625  l3.0849609-3.0854492c2.8989258-2.8979492,5.6801758-3.5966797,9.5883789-2.4091797l33.2607422,10.7402344  c1.5078125,0.4575195,2.894043,1.2890625,4.0092773,2.4033203l2.753418,2.753418  c1.371582,1.371582,2.1269531,3.1953125,2.1269531,5.1352539s-0.7553711,3.7636719-2.1269531,5.1352539l-1.2856445,1.2854004  C76.4944458,39.0146484,70.5126343,34.2084961,62.8652344,34.2084961z M57.1522217,80.1357422  c-0.3091431-1.1978149-1.3889771-2.0893555-2.6820068-2.0893555H35.0161133c-1.2930298,0-2.373291,0.8915405-2.6824951,2.0893555  H25.574707c-4.1064453,0-7.4472656-3.3408203-7.4472656-7.4467773v-4.3632812c0-4.1000977,1.4750977-6.5600586,5.0761719-8.4833984  l9.7489014-4.9898682l6.8946533,6.8946533c0.5419922,0.5419922,1.253418,0.8129883,1.965332,0.8129883  c0.4643555,0,0.9237061-0.1273804,1.3407593-0.3579712l4.0557251,4.0552368  c2.8725586,2.8730469,6.6918945,4.4550781,10.7543945,4.4550781s7.8818359-1.5820312,10.7543945-4.4550781l1.2895508-1.2893066  v6.9396973c0,4.5371094-3.690918,8.2280273-8.2275391,8.2280273H57.1522217z M49,80.0463867V88h-8.4101562v-7.9536133H49z   M46.8852539,54.7094727c0.1474609,0.1469727,0.2285156,0.3427734,0.2285156,0.5507812s-0.0810547,0.4038086-0.2285156,0.5512695  l-4.5214844,4.5214844c-0.3037109,0.3037109-0.7988281,0.3037109-1.1025391,0l-2.027832-2.027832l5.6235962-5.6240845  L46.8852539,54.7094727z M70.0073242,62.145874c-0.005127,0.0049438-0.0120239,0.0062866-0.0170898,0.0113525l-2.6865234,2.6860352  c-2.4951172,2.4951172-5.8120117,3.8691406-9.340332,3.8691406c-3.527832,0-6.8452148-1.3740234-9.340332-3.8691406  l-3.9708862-3.970459l2.7215576-2.7211914l3.2029419,3.2033691c1.9941406,1.9941406,4.6132812,2.9907227,7.2324219,2.9907227  s5.2382812-0.9970703,7.2319336-2.9907227l4.9663086-4.9663086V62.145874z M70.0073242,53.5605469l-6.3803711,6.3803711  c-3.2080078,3.2080078-8.4282227,3.2070312-11.6362305,0l-3.2715454-3.2719727  c0.2510376-0.423584,0.3945923-0.9034424,0.3945923-1.4086914c0-0.7426758-0.2895508-1.440918-0.8144531-1.965332  l-4.1654663-4.1655884l10.1830444-5.2123413c1.3901367-0.7421875,2.9584961-1.1347656,4.534668-1.1347656h3.8935547  c4.0043945,0,7.262207,3.2578125,7.262207,7.262207V53.5605469z M43.4429932,51.2669678l-5.6236572,5.6241455l-6.3730469-6.3730469  l5.6243896-5.6239014L43.4429932,51.2669678z M12,72.7744141v-5.1855469c0-4.8857422,2.6772461-9.3500977,6.9868164-11.6513672  l9.8110962-5.2396851l2.6685791,2.6685791l-9.1896362,4.7034302c-4.3100586,2.3022461-6.1494141,5.3691406-6.1494141,10.2558594  v4.3632812c0,5.2089844,4.237793,9.4467773,9.4472656,9.4467773h6.6616211v3.8481445h-7.0273438  C17.925293,85.9838867,12,80.0581055,12,72.7744141z M34.2363281,87.2202148v-6.394043  c0-0.4301758,0.3496094-0.7797852,0.7797852-0.7797852h3.5737305V88h-3.5737305  C34.5859375,88,34.2363281,87.6503906,34.2363281,87.2202148z M55.2495117,87.2202148  C55.2495117,87.6503906,54.8999023,88,54.4702148,88H51v-7.9536133h3.4702148c0.4296875,0,0.7792969,0.3496094,0.7792969,0.7797852  V87.2202148z M76.0742188,72.7744141c0,7.2836914-5.925293,13.2094727-13.2089844,13.2094727h-5.6157227v-3.8481445h4.5302734  c5.6396484,0,10.2275391-4.5883789,10.2275391-10.2280273V50.0444336c0-5.1074219-4.1547852-9.262207-9.262207-9.262207h-3.8935547  c-1.9038086,0-3.7978516,0.4741211-5.4614258,1.362793l-10.7422485,5.498291l-2.8303833-2.8304443l14.7801514-7.8939209  c1.487793-0.7939453,3.2177734-0.7617188,5.0439453-0.7255859c0.3911133,0.0078125,0.784668,0.0151367,1.1787109,0.0151367  h2.0449219c7.5302734,0,13.2089844,5.3144531,13.2089844,12.3623047V72.7744141z M84.418457,47.7290039l-6.3442383,6.3442383  v-5.5024414c0-0.0805054-0.0106201-0.1575317-0.0119019-0.2376099l2.4386597-2.4381714  c1.7495117-1.7495117,2.7128906-4.0751953,2.7128906-6.5493164s-0.9633789-4.7998047-2.7128906-6.5493164l-2.753418-2.753418  c-1.3466797-1.3461914-3.0209961-2.3500977-4.8256836-2.8979492L39.6611328,16.4047852  c-4.6738281-1.4189453-8.1450195-0.5517578-11.6000977,2.9038086l-3.0849609,3.0854492  c-1.7841797,1.7841797-2.7670898,4.1567383-2.7670898,6.6796875c0,2.5234375,0.9829102,4.8959961,2.7670898,6.6801758  l4.7106934,4.7106934l-2.7211914,2.7211914l-4.9689941-4.9689941c-2.4951172-2.4951172-3.8691406-5.8125-3.8691406-9.340332  c0-3.5283203,1.3740234-6.8452148,3.8691406-9.340332l3.6665039-3.6669922  c3.4541016-3.4541016,8.5043945-4.71875,13.1796875-3.2983398l38.628418,11.7329102  c1.6142578,0.4897461,2.8120117,1.7353516,4.0800781,3.0537109c0.2709961,0.2817383,0.543457,0.5649414,0.8222656,0.84375  l1.4462891,1.4458008C89.1445312,34.972168,89.4018555,42.7456055,84.418457,47.7290039z"/><text x="0" y="115" fill="#000000" font-size="5px" font-weight="bold" font-family="'Helvetica Neue', Helvetica, Arial-Unicode, Arial, Sans-serif">Created by Made by Made</text><text x="0" y="120" fill="#000000" font-size="5px" font-weight="bold" font-family="'Helvetica Neue', Helvetica, Arial-Unicode, Arial, Sans-serif">from the Noun Project</text></svg>