<svg xmlns="http://www.w3.org/2000/svg" xmlns:xlink="http://www.w3.org/1999/xlink" version="1.1" x="0px" y="0px" viewBox="0 0 100 125" style="enable-background:new 0 0 100 100;" xml:space="preserve"><path d="M77.13,93.52h-5.34v-7.16c0-1.62,0.27-9.87,5.7-12.99c0.35-0.2,0.47-0.65,0.27-1.01c-0.2-0.35-0.65-0.48-1.01-0.27  c-6.13,3.53-6.44,12.5-6.44,14.27v7.16h-3V73.77c0-9.54,2.41-19.02,6.96-27.41l1.89-3.48c0.19-0.36,0.06-0.81-0.3-1  c-0.36-0.19-0.81-0.06-1,0.3l-1.89,3.48c-4.67,8.6-7.14,18.33-7.14,28.11v19.76h-8.59V57.07c1.97-0.35,3.47-2.07,3.47-4.13V25.01  c0-2.07-1.5-3.78-3.47-4.13v-1.39c0-0.41-0.33-0.74-0.74-0.74c-0.41,0-0.74,0.33-0.74,0.74v1.39c-1.97,0.35-3.47,2.07-3.47,4.13  v27.93c0,2.07,1.5,3.78,3.47,4.13v36.45H45.17v-43.4c1.97-0.35,3.47-2.07,3.47-4.13V11.65c0-2.07-1.5-3.78-3.47-4.13V5.74  c0-0.41-0.33-0.74-0.74-0.74c-0.41,0-0.74,0.33-0.74,0.74v1.77c-1.97,0.35-3.47,2.07-3.47,4.13v34.34c0,2.07,1.5,3.78,3.47,4.13  v43.4h-8.94V75.97v-7.25c0-12.17-3.07-24.25-8.88-34.94l-2.35-4.33c-0.19-0.36-0.64-0.49-1-0.3c-0.36,0.19-0.49,0.64-0.3,1  l2.35,4.33c5.16,9.51,8.11,20.13,8.61,30.92c-1.66-5.6-4.77-11.14-9.88-14.95c-0.33-0.24-0.79-0.18-1.03,0.15  c-0.24,0.33-0.18,0.79,0.15,1.03c7.99,5.96,10.84,16.47,10.84,24.32v17.55h-10.4c-0.41,0-0.74,0.33-0.74,0.74  c0,0.41,0.33,0.74,0.74,0.74h54.25c0.41,0,0.74-0.33,0.74-0.74C77.86,93.86,77.53,93.52,77.13,93.52z M53.78,52.94V25.01  c0-1.51,1.23-2.73,2.73-2.73s2.73,1.23,2.73,2.73v27.93c0,1.51-1.23,2.73-2.73,2.73S53.78,54.45,53.78,52.94z M41.7,45.99V11.65  c0-1.51,1.23-2.73,2.73-2.73c1.51,0,2.73,1.23,2.73,2.73v34.34c0,1.49-1.21,2.71-2.69,2.73c-0.01,0-0.03-0.01-0.04-0.01  c-0.01,0-0.03,0.01-0.04,0.01C42.9,48.7,41.7,47.48,41.7,45.99z"/></svg>