<svg xmlns:dc="http://purl.org/dc/elements/1.1/" xmlns:cc="http://creativecommons.org/ns#" xmlns:rdf="http://www.w3.org/1999/02/22-rdf-syntax-ns#" xmlns:svg="http://www.w3.org/2000/svg" xmlns="http://www.w3.org/2000/svg" xmlns:sodipodi="http://sodipodi.sourceforge.net/DTD/sodipodi-0.dtd" xmlns:inkscape="http://www.inkscape.org/namespaces/inkscape" viewBox="0 0 16.933333 21.1666675" version="1.1" x="0px" y="0px"><g transform="translate(0,-280.06665)"><path d="m 6.9848146,281.70314 c -0.097,-0.097 -0.097,-0.25442 0,-0.35142 0.097,-0.097 0.25441,-0.097 0.351418,0 l 0.881811,0.88178 v -1.65361 c 0,-0.13725 0.111299,-0.24855 0.248546,-0.24855 0.137245,0 0.24857,0.1113 0.24857,0.24855 v 1.65361 l 0.881788,-0.88178 c 0.09703,-0.097 0.254411,-0.097 0.351419,0 0.09703,0.097 0.09703,0.25441 0,0.35142 l -1.233207,1.23323 v 0.93513 l 0.560742,-0.56083 c 0.09701,-0.097 0.254412,-0.097 0.351418,0 0.09701,0.097 0.09701,0.25442 0,0.35142 l -0.91216,0.91224 v 3.52916 l 3.0558634,-1.76428 0.334019,-1.24647 c 0.03537,-0.13239 0.171546,-0.21108 0.303921,-0.17571 0.1324,0.0353 0.21109,0.17154 0.175722,0.30394 l -0.205571,0.76708 0.810405,-0.46788 0.451556,-1.68503 c 0.03537,-0.13238 0.171548,-0.21108 0.303921,-0.17571 0.132401,0.0353 0.21109,0.17156 0.175722,0.30393 l -0.323108,1.20573 1.432614,-0.8271 c 0.118506,-0.0687 0.270267,-0.0282 0.338892,0.0903 0.06862,0.11851 0.02816,0.27024 -0.09032,0.33886 l -1.433261,0.8275 1.205541,0.32303 c 0.132378,0.0354 0.211092,0.17155 0.175723,0.30394 -0.03537,0.13238 -0.171569,0.21106 -0.303947,0.1757 l -1.685332,-0.4516 -0.810407,0.46788 0.766886,0.20544 c 0.132375,0.0353 0.211065,0.17155 0.175697,0.30395 -0.03537,0.13238 -0.171546,0.21107 -0.303923,0.1757 l -1.246826,-0.33394 -3.0562844,1.76452 3.0564344,1.76463 1.246676,-0.33401 c 0.132377,-0.0354 0.268554,0.0433 0.303923,0.17572 0.03537,0.13237 -0.04332,0.26855 -0.175697,0.30392 l -0.766836,0.20545 0.810431,0.46789 1.685335,-0.45161 c 0.132375,-0.0353 0.268553,0.0433 0.30392,0.17572 0.03537,0.13238 -0.04332,0.26856 -0.175696,0.30392 l -1.205543,0.32304 1.433236,0.82748 c 0.118505,0.0687 0.158944,0.22038 0.09032,0.33889 -0.0686,0.11848 -0.22036,0.15894 -0.338868,0.0903 l -1.432614,-0.82714 0.323034,1.20574 c 0.03537,0.13237 -0.04332,0.26859 -0.175722,0.30395 -0.132373,0.0353 -0.268551,-0.0434 -0.303921,-0.17572 l -0.45148,-1.68503 -0.810481,-0.46796 0.205645,0.76723 c 0.03537,0.13239 -0.04332,0.26857 -0.17572,0.30394 -0.132376,0.0353 -0.268555,-0.0433 -0.303922,-0.17572 l -0.334094,-1.24653 -3.0558634,-1.7643 v 0.91082 2.61835 l 0.91216,0.91224 c 0.09701,0.097 0.09701,0.25441 0,0.35141 -0.097,0.097 -0.254411,0.097 -0.351418,0 l -0.560742,-0.56082 v 0.93516 l 1.233207,1.23327 c 0.09703,0.097 0.09703,0.25442 0,0.35142 -0.097,0.097 -0.254387,0.097 -0.351419,0 l -0.881788,-0.88186 v 1.6537 c 0,0.13725 -0.111325,0.24854 -0.24857,0.24854 -0.137247,0 -0.248546,-0.11129 -0.248546,-0.24854 v -1.6537 l -0.881811,0.88186 c -0.097,0.097 -0.254414,0.097 -0.351418,0 -0.097,-0.097 -0.097,-0.2544 0,-0.35142 l 1.233229,-1.23327 v -0.93516 l -0.560741,0.56082 c -0.09703,0.097 -0.254413,0.097 -0.351443,0 -0.097,-0.097 -0.097,-0.25441 0,-0.35141 l 0.912184,-0.91224 v -2.61835 -0.91067 l -0.788112,0.45499 -2.2677,1.30923 -0.33402,1.24646 c -0.03537,0.13239 -0.171545,0.21109 -0.30392,0.17572 -0.132401,-0.0353 -0.211089,-0.17155 -0.175722,-0.30394 l 0.205597,-0.76708 -0.810506,0.46796 -0.451483,1.68488 c -0.03537,0.13237 -0.171545,0.21109 -0.30392,0.17572 -0.1324,-0.0353 -0.21109,-0.17158 -0.175722,-0.30395 l 0.323034,-1.20559 -1.432538,0.82703 c -0.118507,0.0686 -0.270268,0.0282 -0.338867,-0.0904 -0.06862,-0.11848 -0.02818,-0.27025 0.09032,-0.33887 l 1.43316,-0.82734 -1.205541,-0.32303 c -0.132376,-0.0353 -0.211065,-0.17155 -0.175697,-0.30395 0.03537,-0.13237 0.171545,-0.21107 0.30392,-0.1757 l 1.685409,0.45162 0.810505,-0.4679 -0.76696,-0.20552 c -0.1324,-0.0353 -0.21109,-0.17155 -0.175722,-0.30392 0.03537,-0.1324 0.171547,-0.2111 0.303947,-0.17572 l 1.2468,0.33401 2.267081,-1.30888 0.789354,-0.45575 -0.789354,-0.45572 -0.01243,-0.008 -2.254029,-1.30132 -1.247448,0.33421 c -0.132401,0.0353 -0.268578,-0.0433 -0.303946,-0.1757 -0.03537,-0.13239 0.04332,-0.26857 0.175721,-0.30394 l 0.76758,-0.20565 -0.810429,-0.46787 -1.686031,0.45172 c -0.132375,0.0353 -0.268552,-0.0433 -0.30392,-0.1757 -0.03537,-0.13237 0.04332,-0.26858 0.175696,-0.30394 l 1.206164,-0.32336 -1.432888,-0.82728 c -0.118506,-0.0681 -0.159366,-0.21939 -0.09129,-0.3379 0.06805,-0.11851 0.219391,-0.15936 0.337897,-0.0913 l 1.43378,0.82776 -0.323231,-1.20638 c -0.03537,-0.13238 0.04332,-0.26856 0.17572,-0.30392 0.132375,-0.0354 0.268555,0.0433 0.30392,0.17569 l 0.451684,1.68568 0.810505,0.46797 -0.205795,-0.76788 c -0.03537,-0.13238 0.04332,-0.26858 0.17572,-0.30394 0.132375,-0.0354 0.268554,0.0433 0.30392,0.17571 l 0.334245,1.24718 2.253237,1.3009 c 0.0047,0.003 0.0094,0.005 0.01417,0.008 l 0.788112,0.45497 v -3.52903 l -0.912187,-0.91224 c -0.097,-0.097 -0.097,-0.2544 0,-0.35142 0.09703,-0.097 0.254412,-0.097 0.35144,0 l 0.560746,0.56083 v -0.93514 z" style="" fill="#000000" fill-rule="evenodd" stroke-width="0.24854515"/></g><text x="0" y="31.933334" fill="#000000" font-size="5px" font-weight="bold" font-family="'Helvetica Neue', Helvetica, Arial-Unicode, Arial, Sans-serif">Created by Alvida Biersack</text><text x="0" y="36.933334" fill="#000000" font-size="5px" font-weight="bold" font-family="'Helvetica Neue', Helvetica, Arial-Unicode, Arial, Sans-serif">from the Noun Project</text></svg>