<svg xmlns="http://www.w3.org/2000/svg" xmlns:xlink="http://www.w3.org/1999/xlink" xml:space="preserve" version="1.1" style="shape-rendering:geometricPrecision;text-rendering:geometricPrecision;image-rendering:optimizeQuality;" viewBox="0 0 846.66 1058.325" x="0px" y="0px" fill-rule="evenodd" clip-rule="evenodd"><defs><style type="text/css">
   
    .fil0 {fill:black;fill-rule:nonzero}
   
  </style></defs><g><path class="fil0" d="M800.22 224.99c-20.65,0 -37.62,16.95 -37.62,37.61l0 104.05 -29.53 0c2.54,-5.26 3.96,-11.15 3.96,-17.37 0,-22.2 -18.09,-40.31 -40.29,-40.31l-125.19 0c-22.19,0 -40.29,18.1 -40.29,40.29 0,6.23 1.42,12.13 3.95,17.39l-454.89 0 0 -28.67c0,-19.67 -16.07,-35.74 -35.75,-35.74 -19.66,0 -35.74,16.08 -35.74,35.74l0 247.94c0,19.62 16.12,35.75 35.74,35.75 21,0 35.75,-16.76 35.75,-37.37l682.28 0c0.14,20.54 17.07,37.37 37.62,37.37 20.7,0 37.61,-16.93 37.61,-37.61l0 -321.46c0,-20.69 -16.91,-37.61 -37.61,-37.61zm-103.03 141.66l-126.09 0c-9.36,-0.25 -16.93,-7.99 -16.93,-17.37 0,-9.55 7.81,-17.4 17.38,-17.4l125.19 0c9.54,0 17.38,7.83 17.38,17.38 0,9.39 -7.55,17.14 -16.93,17.39zm65.41 22.91l0 34.78 -682.28 0 0 -34.78c227.43,0 454.86,0 682.28,0zm-705.19 194.74c0,7.91 -4.41,14.46 -12.84,14.46 -7.11,0 -12.84,-5.74 -12.84,-12.84l0 -247.94c0,-7.07 5.78,-12.84 12.84,-12.84 7.04,0 12.84,5.81 12.84,12.84 0,82.11 0,164.21 0,246.32zm705.19 -137.05l0 114.14 -682.28 0 0 -114.14 682.28 0zm37.62 -199.35c8.06,0 14.71,6.64 14.71,14.7l0 321.46c0,8.09 -6.61,14.7 -14.71,14.7 -8.12,0 -14.71,-6.58 -14.71,-14.7 0,-107.16 0,-214.3 0,-321.46 0,-8.08 6.62,-14.7 14.71,-14.7z"/></g><text x="0" y="861.66" fill="#000000" font-size="5px" font-weight="bold" font-family="'Helvetica Neue', Helvetica, Arial-Unicode, Arial, Sans-serif">Created by septian kho</text><text x="0" y="866.66" fill="#000000" font-size="5px" font-weight="bold" font-family="'Helvetica Neue', Helvetica, Arial-Unicode, Arial, Sans-serif">from the Noun Project</text></svg>