<svg xmlns="http://www.w3.org/2000/svg" xmlns:xlink="http://www.w3.org/1999/xlink" version="1.1" x="0px" y="0px" viewBox="0 0 100 125" style="enable-background:new 0 0 100 100;" xml:space="preserve"><g><g><g><path d="M98.8,84.6c-4.8,0-9.3-2.3-12.2-6.1c-2.9,3.8-7.4,6.1-12.2,6.1c-4.8,0-9.3-2.3-12.2-6.1     c-2.9,3.8-7.4,6.1-12.2,6.1c-4.8,0-9.3-2.3-12.2-6.1c-2.9,3.8-7.4,6.1-12.2,6.1c-4.8,0-9.3-2.3-12.2-6.1     c-2.9,3.8-7.4,6.1-12.2,6.1c-0.7,0-1.2-0.5-1.2-1.2c0-0.7,0.5-1.2,1.2-1.2c4.6,0,8.8-2.5,11.2-6.4c0.2-0.4,0.6-0.6,1-0.6     c0.4,0,0.8,0.2,1,0.6c2.3,4,6.6,6.4,11.2,6.4c4.6,0,8.8-2.5,11.2-6.4c0.2-0.4,0.6-0.6,1-0.6l0,0c0.4,0,0.8,0.2,1,0.6     c2.3,4,6.6,6.4,11.2,6.4c4.6,0,8.8-2.5,11.2-6.4c0.2-0.4,0.6-0.6,1-0.6c0.4,0,0.8,0.2,1,0.6c2.3,4,6.6,6.4,11.2,6.4     c4.6,0,8.8-2.5,11.2-6.4c0.2-0.4,0.6-0.6,1-0.6c0.4,0,0.8,0.2,1,0.6c2.3,4,6.6,6.4,11.2,6.4c0.7,0,1.2,0.5,1.2,1.2     C100,84.1,99.5,84.6,98.8,84.6z"/></g><g><path d="M98.8,67.6c-4.8,0-9.3-2.3-12.2-6.1c-2.9,3.8-7.4,6.1-12.2,6.1c-4.8,0-9.3-2.3-12.2-6.1     c-2.9,3.8-7.4,6.1-12.2,6.1c-4.8,0-9.3-2.3-12.2-6.1c-2.9,3.8-7.4,6.1-12.2,6.1c-4.8,0-9.3-2.3-12.2-6.1     c-2.9,3.8-7.4,6.1-12.2,6.1c-0.7,0-1.2-0.5-1.2-1.2c0-0.7,0.5-1.2,1.2-1.2c4.6,0,8.8-2.5,11.2-6.4c0.2-0.4,0.6-0.6,1-0.6l0,0     c0.4,0,0.8,0.2,1,0.6c2.3,4,6.6,6.4,11.2,6.4c4.6,0,8.8-2.5,11.2-6.4c0.2-0.4,0.6-0.6,1-0.6c0.4,0,0.8,0.2,1,0.6     c2.3,4,6.6,6.4,11.2,6.4s8.8-2.5,11.2-6.4c0.2-0.4,0.6-0.6,1-0.6c0.4,0,0.8,0.2,1,0.6c2.3,4,6.6,6.4,11.2,6.4s8.8-2.5,11.2-6.4     c0.2-0.4,0.6-0.6,1-0.6l0,0c0.4,0,0.8,0.2,1,0.6c2.3,4,6.6,6.4,11.2,6.4c0.7,0,1.2,0.5,1.2,1.2C100,67.1,99.5,67.6,98.8,67.6z"/></g></g><g><path d="M78.8,42.6c-3.6,0-7-1.4-9.6-4c-5.3-5.3-5.3-13.9,0-19.2c5.3-5.3,13.9-5.3,19.2,0    c5.3,5.3,5.3,13.9,0,19.2C85.8,41.2,82.4,42.6,78.8,42.6z M78.8,17.8c-2.9,0-5.7,1.1-7.9,3.3c-4.4,4.4-4.4,11.5,0,15.8    c2.1,2.1,4.9,3.3,7.9,3.3c3,0,5.8-1.2,7.9-3.3c4.4-4.4,4.4-11.5,0-15.8C84.5,18.9,81.7,17.8,78.8,17.8z"/></g><g><path d="M28.7,62.4c-0.3,0-0.6-0.1-0.9-0.4c-0.5-0.5-0.5-1.2,0-1.7l19-18.8l-11.8-6.8l-14.6,3.9    c-3.4,0.9-6.8-1.1-7.7-4.5c-0.4-1.6-0.2-3.3,0.6-4.8c0.8-1.5,2.2-2.5,3.8-2.9l19.5-5.2c0.3-0.1,0.6,0,0.9,0.1l19.6,11.2    c0.1,0.1,0.2,0.1,0.3,0.2l15,15c1.9,1.9,1.9,4.9,0,6.8l-4,4c-0.5,0.5-1.2,0.5-1.7,0c-0.5-0.5-0.5-1.2,0-1.7l4-4    c0.9-0.9,0.9-2.5,0-3.4L55.9,34.6L36.8,23.8l-19,5.1c-1,0.3-1.8,0.9-2.4,1.8c-0.5,0.9-0.7,2-0.4,3c0.3,1,0.9,1.8,1.8,2.4    c0.9,0.5,2,0.7,3,0.4l15.1-4.1c0.3-0.1,0.6,0,0.9,0.1l13.6,7.9c0.3,0.2,0.5,0.5,0.6,0.9c0,0.4-0.1,0.7-0.3,1L29.6,62.1    C29.3,62.3,29,62.4,28.7,62.4z"/></g></g><text x="0" y="115" fill="#000000" font-size="5px" font-weight="bold" font-family="'Helvetica Neue', Helvetica, Arial-Unicode, Arial, Sans-serif">Created by Andrei Yushchenko</text><text x="0" y="120" fill="#000000" font-size="5px" font-weight="bold" font-family="'Helvetica Neue', Helvetica, Arial-Unicode, Arial, Sans-serif">from the Noun Project</text></svg>