<svg xmlns:dc="http://purl.org/dc/elements/1.1/" xmlns:cc="http://creativecommons.org/ns#" xmlns:rdf="http://www.w3.org/1999/02/22-rdf-syntax-ns#" xmlns:svg="http://www.w3.org/2000/svg" xmlns="http://www.w3.org/2000/svg" xmlns:sodipodi="http://sodipodi.sourceforge.net/DTD/sodipodi-0.dtd" xmlns:inkscape="http://www.inkscape.org/namespaces/inkscape" viewBox="0 0 12.7 15.875" version="1.1" x="0px" y="0px"><g transform="translate(0,-284.29999)"><path style="" d="m 6.0813091,290.08697 a 0.12824771,0.12824771 0 1 0 -0.2564624,0 0.12824771,0.12824771 0 1 0 0.2564624,0 z" fill="#000000" stroke="none"/><path style="" d="m 6.8750695,290.08697 a 0.12828055,0.12828055 0 1 0 -0.2565611,0 0.12828055,0.12828055 0 1 0 0.2565611,0 z" fill="#000000" stroke="none"/><path style="" d="m 4.1582102,287.41739 a 0.13137261,0.13137261 0 0 0 -0.027936,0.003 4.5772519,4.5772519 0 0 0 -3.60008381,3.90404 0.13137261,0.13137261 0 0 0 0.23236453,0.0989 1.3116032,1.3116032 0 0 1 2.33095568,0.87912 0.13137261,0.13137261 0 0 0 0.1579557,0.1341 1.3105398,1.3105398 0 0 1 1.5636306,1.09023 0.13137261,0.13137261 0 0 0 0.1334138,0.11219 3.4499536,3.4499536 0 0 1 1.3534581,0.23508 0.13137261,0.13137261 0 0 0 0.095818,0 3.4499536,3.4499536 0 0 1 1.3539803,-0.23508 0.13137261,0.13137261 0 0 0 0.1334138,-0.11219 1.3105398,1.3105398 0 0 1 1.5631084,-1.09023 0.13137261,0.13137261 0 0 0 0.1579557,-0.1341 1.3116032,1.3116032 0 0 1 2.330956,-0.87912 0.13137261,0.13137261 0 0 0 0.232625,-0.0989 4.5772519,4.5772519 0 0 0 -3.5998224,-3.90404 0.13137261,0.13137261 0 0 0 -0.1044335,0.23458 1.3677854,1.3677854 0 0 1 0.3012906,1.89999 2.7711288,2.7711288 0 0 1 -1.3098571,0.90565 0.58697047,0.58697047 0 0 0 -0.018276,-0.33604 1.0131299,1.0131299 0 0 0 0.1067832,-1.10298 0.13137261,0.13137261 0 0 0 -0.1556059,-0.0643 1.6753058,1.6753058 0 0 0 -0.7683694,0.50533 0.83111516,0.83111516 0 0 0 -0.5427932,0 1.6753058,1.6753058 0 0 0 -0.7683694,-0.50533 0.13137261,0.13137261 0 0 0 -0.155606,0.0643 1.0131299,1.0131299 0 0 0 0.1073055,1.10298 0.58697047,0.58697047 0 0 0 -0.018276,0.33604 2.7711288,2.7711288 0 0 1 -1.3103793,-0.90565 1.3677854,1.3677854 0 0 1 0.3018128,-1.89999 0.13137261,0.13137261 0 0 0 -0.076498,-0.23711 z m -0.1033892,0.17999 a 1.5243942,1.5243942 0 0 0 -0.2469852,2.05196 2.9277378,2.9277378 0 0 0 1.4338719,0.97447 0.13137261,0.13137261 0 0 0 0.1631774,-0.16673 0.4303616,0.4303616 0 0 1 0.010443,-0.29016 0.13137261,0.13137261 0 0 0 -0.020887,-0.13104 0.85652119,0.85652119 0 0 1 -0.1080886,-0.92299 1.518697,1.518697 0 0 1 0.6869113,0.46353 0.13137261,0.13137261 0 0 0 0.1459458,0.0388 0.6745064,0.6745064 0 0 1 0.4670789,0 0.13137261,0.13137261 0 0 0 0.1456847,-0.0388 1.518697,1.518697 0 0 1 0.6869113,-0.46353 0.85652119,0.85652119 0 0 1 -0.1075665,0.92299 0.13137261,0.13137261 0 0 0 -0.020887,0.13104 0.4303616,0.4303616 0 0 1 0.010443,0.29016 0.13137261,0.13137261 0 0 0 0.1631773,0.16673 2.9277378,2.9277378 0 0 0 1.4333498,-0.97447 h -0.00522 a 1.5243942,1.5243942 0 0 0 -0.2467241,-2.05196 4.4206432,4.4206432 0 0 1 3.357798,3.66181 1.468212,1.468212 0 0 0 -2.5541822,1.01783 1.4671484,1.4671484 0 0 0 -1.7150592,1.20394 3.6065621,3.6065621 0 0 0 -1.3837439,0.24322 3.6065621,3.6065621 0 0 0 -1.3834827,-0.24322 1.4671484,1.4671484 0 0 0 -1.7155814,-1.20394 1.468212,1.468212 0 0 0 -2.55366013,-1.01783 4.4206432,4.4206432 0 0 1 3.35753703,-3.66181 z" fill="#000000" stroke="none"/></g><text x="0" y="27.7" fill="#000000" font-size="5px" font-weight="bold" font-family="'Helvetica Neue', Helvetica, Arial-Unicode, Arial, Sans-serif">Created by Phạm Thanh Lộc</text><text x="0" y="32.7" fill="#000000" font-size="5px" font-weight="bold" font-family="'Helvetica Neue', Helvetica, Arial-Unicode, Arial, Sans-serif">from the Noun Project</text></svg>