<svg xmlns:dc="http://purl.org/dc/elements/1.1/" xmlns:cc="http://creativecommons.org/ns#" xmlns:rdf="http://www.w3.org/1999/02/22-rdf-syntax-ns#" xmlns:svg="http://www.w3.org/2000/svg" xmlns="http://www.w3.org/2000/svg" xmlns:sodipodi="http://sodipodi.sourceforge.net/DTD/sodipodi-0.dtd" xmlns:inkscape="http://www.inkscape.org/namespaces/inkscape" viewBox="0 0 16.933333 21.1666675" version="1.1" x="0px" y="0px"><g transform="translate(0,-280.06665)"><path d="m 6.0507578,286.48268 c 0,0.46002 -0.186571,0.87666 -0.488055,1.17815 -0.301511,0.3015 -0.718128,0.48807 -1.178171,0.48807 -0.460018,0 -0.8766371,-0.18657 -1.178145,-0.48807 -0.301483,-0.30149 -0.488057,-0.71813 -0.488057,-1.17815 0,-0.54466 0.371604,-1.14904 0.667819,-1.63071 0.06649,-0.1083 0.129626,-0.21097 0.170017,-0.28086 l 0.0077,-0.0124 0.606101,-1.04983 c 0.06805,-0.11844 0.219407,-0.1593 0.337848,-0.0912 0.0394,0.0226 0.07016,0.0545 0.09125,0.0912 l 0.613406,1.06252 v 0 c 0.04088,0.0708 0.103576,0.17277 0.170243,0.28119 0.296139,0.48167 0.667594,1.08578 0.667594,1.63036 z m -0.839525,0.82669 c 0.2114529,-0.21145 0.3423729,-0.50385 0.3423729,-0.82669 0,-0.4046 -0.330391,-0.94191 -0.593773,-1.37021 -0.05903,-0.096 -0.11511,-0.1873 -0.176008,-0.29276 v 0 0 l -0.399293,-0.69163 -0.391663,0.67846 c -0.0026,0.005 -0.005,0.009 -0.0077,0.0142 -0.06132,0.10611 -0.1169,0.19656 -0.175808,0.29239 -0.263456,0.4284 -0.593972,0.96594 -0.593972,1.37058 0,0.32283 0.130919,0.61525 0.342373,0.82669 0.211429,0.21146 0.50384,0.34236 0.826677,0.34236 0.322859,0 0.61527,-0.1309 0.826699,-0.34236 z m 6.9511042,6.31407 c 0,0.85925 -0.348438,1.63733 -0.911536,2.20043 -0.563199,0.56309 -1.3412803,0.91153 -2.2005173,0.91153 -0.8592629,0 -1.637344,-0.34844 -2.200515,-0.91153 -0.563098,-0.5631 -0.911536,-1.34118 -0.911536,-2.20043 0,-1.02884 0.729537,-2.21524 1.311054,-3.16095 0.130694,-0.21265 0.254057,-0.41324 0.346572,-0.57346 l 0.0077,-0.0124 1.232108,-2.13415 c 0.06808,-0.11844 0.219406,-0.1593 0.337873,-0.0912 0.03937,0.0226 0.07016,0.0545 0.09123,0.0912 l 1.2398873,2.14754 c 0.08307,0.14395 0.211081,0.35207 0.34645,0.5722 0.581565,0.94576 1.311178,2.13231 1.311178,3.16122 z m -1.263005,1.84897 c 0.473067,-0.47306 0.765824,-1.12693 0.765824,-1.84897 0,-0.88877 -0.688521,-2.00858 -1.237328,-2.9011 -0.118293,-0.19242 -0.229897,-0.37384 -0.352217,-0.58572 l -1.0253273,-1.77592 -1.017722,1.76274 c -0.0024,0.005 -0.005,0.009 -0.0077,0.0142 -0.1130221,0.19571 -0.2292011,0.3847 -0.3523641,0.58502 -0.548733,0.89249 -1.237179,2.0121 -1.237179,2.9008 0,0.72204 0.292732,1.37591 0.7658,1.84897 0.473141,0.47308 1.126992,0.76584 1.84907,0.76584 0.722055,0 1.3759304,-0.29276 1.8490484,-0.76584 z m 3.315672,-10.91976 c 0,0.61435 -0.249136,1.17061 -0.651734,1.57321 -0.402601,0.40263 -0.958962,0.65176 -1.57329,0.65176 -0.614252,0 -1.170537,-0.24913 -1.573138,-0.65176 -0.402602,-0.4026 -0.6517623,-0.95893 -0.6517623,-1.57321 0,-0.73185 0.5100043,-1.56131 0.9165323,-2.22234 0.09125,-0.14847 0.177577,-0.28876 0.238102,-0.39358 l 0.0077,-0.0124 0.847951,-1.46894 c 0.06808,-0.11845 0.219432,-0.15931 0.337872,-0.0912 0.03937,0.0226 0.07016,0.0545 0.09123,0.0912 l 0.855386,1.48162 v 0 c 0.06074,0.10519 0.146975,0.24545 0.238374,0.39408 0.406475,0.6609 0.916306,1.49014 0.916306,2.22184 z m -1.00318,1.22176 c 0.312619,-0.31261 0.506029,-0.74459 0.506029,-1.22176 0,-0.59171 -0.468771,-1.35408 -0.842485,-1.96172 -0.08384,-0.13633 -0.163034,-0.26519 -0.24414,-0.40563 v 0 0 l -0.641248,-1.11071 -0.633566,1.09748 -0.0077,0.0142 c -0.08111,0.14049 -0.160224,0.26902 -0.243866,0.40514 -0.37379,0.60779 -0.842686,1.37036 -0.842686,1.96221 0,0.47709 0.193412,0.90915 0.506031,1.22177 0.312618,0.31261 0.744624,0.50606 1.221695,0.50606 0.477142,0 0.909196,-0.19345 1.221841,-0.50606 z" style="" fill="#000000" fill-rule="evenodd" stroke-width="0.24856438"/></g><text x="0" y="31.933334" fill="#000000" font-size="5px" font-weight="bold" font-family="'Helvetica Neue', Helvetica, Arial-Unicode, Arial, Sans-serif">Created by Alvida Biersack</text><text x="0" y="36.933334" fill="#000000" font-size="5px" font-weight="bold" font-family="'Helvetica Neue', Helvetica, Arial-Unicode, Arial, Sans-serif">from the Noun Project</text></svg>