<svg xmlns="http://www.w3.org/2000/svg" xmlns:xlink="http://www.w3.org/1999/xlink" version="1.1" x="0px" y="0px" viewBox="0 0 64 80" style="enable-background:new 0 0 64 64;" xml:space="preserve"><g><path d="M61,13h-3v-2h1c0.552,0,1-0.448,1-1V6c0-0.552-0.448-1-1-1h-1V2c0-0.552-0.448-1-1-1H47c-0.552,0-1,0.448-1,1v3h-1   c-0.552,0-1,0.448-1,1v4c0,0.552,0.448,1,1,1h1v2h-3c-0.552,0-1,0.448-1,1v4c0,0.552,0.448,1,1,1h3v12c0,2.206-1.794,4-4,4   s-4-1.794-4-4V17c0-8.822-7.178-16-16-16S6,8.178,6,17v12H3c-0.552,0-1,0.448-1,1v4c0,0.552,0.448,1,1,1h3v2H5   c-0.552,0-1,0.448-1,1v4c0,0.552,0.448,1,1,1h1v3c0,0.552,0.448,1,1,1h10c0.552,0,1-0.448,1-1v-3h1c0.552,0,1-0.448,1-1v-4   c0-0.552-0.448-1-1-1h-1v-2h3c0.552,0,1-0.448,1-1v-4c0-0.552-0.448-1-1-1h-3V17c0-2.206,1.794-4,4-4s4,1.794,4,4v14   c0,8.822,7.178,16,16,16s16-7.178,16-16V19h3c0.552,0,1-0.448,1-1v-4C62,13.448,61.552,13,61,13z M48,3h8v2h-8V3z M46,7h12v2H46V7z    M48,11h8v2h-8V11z M16,45H8v-2h8V45z M18,41H6v-2h12V41z M16,37H8v-2h8V37z M20,33H4v-2h16V33z M56,31c0,7.72-6.28,14-14,14   s-14-6.28-14-14V17c0-3.309-2.691-6-6-6s-6,2.691-6,6v12H8V17C8,9.28,14.28,3,22,3s14,6.28,14,14v14c0,3.309,2.691,6,6,6   s6-2.691,6-6V19h8V31z M60,17H44v-2h16V17z"/><path d="M12.832,49.445c-0.371-0.557-1.293-0.557-1.664,0l-2.992,4.488C7.407,55.087,7,56.43,7,57.828   c0,2.646,1.982,4.907,4.512,5.149C11.671,62.992,11.83,63,11.989,63c1.244,0,2.452-0.461,3.375-1.3C16.403,60.754,17,59.405,17,58   v-0.183c0-1.387-0.407-2.729-1.176-3.883L12.832,49.445z M15,58c0,0.843-0.358,1.652-0.982,2.22   c-0.632,0.576-1.452,0.851-2.315,0.766C10.187,60.841,9,59.454,9,57.816c0-0.99,0.291-1.949,0.84-2.773l2.16-3.24l2.16,3.24   c0.549,0.824,0.84,1.783,0.84,2.774V58z"/></g><text x="0" y="79" fill="#000000" font-size="5px" font-weight="bold" font-family="'Helvetica Neue', Helvetica, Arial-Unicode, Arial, Sans-serif">Created by Template</text><text x="0" y="84" fill="#000000" font-size="5px" font-weight="bold" font-family="'Helvetica Neue', Helvetica, Arial-Unicode, Arial, Sans-serif">from the Noun Project</text></svg>