<svg xmlns="http://www.w3.org/2000/svg" viewBox="0 0 32 40" x="0px" y="0px"><title>wooden hut</title><path d="M29,26.33h-2.8a2.36,2.36,0,0,0,.4-1.31,2.3,2.3,0,0,0-.88-1.8,2.29,2.29,0,0,0,0-3.61,2.28,2.28,0,0,0,0-3.6,2.3,2.3,0,0,0,.88-1.8,1.83,1.83,0,0,0-.05-.47l.51.26a1.44,1.44,0,0,0,1.13.11,1.47,1.47,0,0,0,.88-.72l.27-.51a1.5,1.5,0,0,0-.62-2L17.76,5.08a3.44,3.44,0,0,0-3.24,0L3.29,11a1.5,1.5,0,0,0-.62,2l.27.51a1.5,1.5,0,0,0,1.32.79A1.44,1.44,0,0,0,5,14.16l.79-.42a2.42,2.42,0,0,0,0,.47A2.27,2.27,0,0,0,6.58,16a2.27,2.27,0,0,0-.88,1.8,2.3,2.3,0,0,0,.88,1.8,2.29,2.29,0,0,0,0,3.61A2.3,2.3,0,0,0,5.7,25a2.36,2.36,0,0,0,.4,1.31H3.3a.5.5,0,0,0-.5.5.51.51,0,0,0,.5.5H29a.51.51,0,0,0,.5-.5A.5.5,0,0,0,29,26.33ZM25.59,25a1.3,1.3,0,1,1-1.3-1.3A1.31,1.31,0,0,1,25.59,25Zm0-3.6a1.3,1.3,0,1,1-1.3-1.31A1.3,1.3,0,0,1,25.59,21.42Zm0-3.61a1.3,1.3,0,1,1-1.32-1.3h.05A1.3,1.3,0,0,1,25.59,17.81Zm-1.3-2.3h0a1.3,1.3,0,1,1,.05,0ZM4.48,13.27a.47.47,0,0,1-.65-.2l-.27-.5a.5.5,0,0,1,0-.38.47.47,0,0,1,.24-.28L15,6a2.48,2.48,0,0,1,1.15-.29A2.45,2.45,0,0,1,17.29,6h0l11,5.79a.49.49,0,0,1,.24.29.47.47,0,0,1,0,.37l-.27.51a.51.51,0,0,1-.28.24.47.47,0,0,1-.37,0L17.3,7.72a2.43,2.43,0,0,0-2.31,0ZM9.79,11.6h8.73a.5.5,0,0,0,.5-.5.5.5,0,0,0-.5-.5H11.67l3.78-2a1.47,1.47,0,0,1,1.38,0l6.58,3.48A2.3,2.3,0,0,0,22.87,16a2.27,2.27,0,0,0,0,3.6,2.28,2.28,0,0,0,0,3.61A2.28,2.28,0,0,0,22,25a2.36,2.36,0,0,0,.4,1.31h-2.5V19a1.5,1.5,0,0,0-1.5-1.5H13.9A1.5,1.5,0,0,0,12.4,19v7.33H9.89a2.28,2.28,0,0,0-.48-3.11,2.28,2.28,0,0,0,0-3.61,2.27,2.27,0,0,0,0-3.6,1.92,1.92,0,0,0,.44-.46H20.5a.5.5,0,0,0,.5-.5.51.51,0,0,0-.5-.5H10.27c0-.11,0-.22,0-.34a2.32,2.32,0,0,0-1.42-2.13ZM6.7,14.21A1.3,1.3,0,1,1,8,15.51H8A1.3,1.3,0,0,1,6.7,14.21Zm0,3.6A1.3,1.3,0,0,1,8,16.51H8a1.3,1.3,0,1,1-1.32,1.3Zm0,3.61A1.3,1.3,0,1,1,8,22.72,1.31,1.31,0,0,1,6.7,21.42Zm0,3.6A1.3,1.3,0,1,1,8,26.33,1.3,1.3,0,0,1,6.7,25Zm6.7,1.31V19a.5.5,0,0,1,.5-.5h4.49a.5.5,0,0,1,.5.5v7.33Z"/><text x="0" y="47" fill="#000000" font-size="5px" font-weight="bold" font-family="'Helvetica Neue', Helvetica, Arial-Unicode, Arial, Sans-serif">Created by Philipp Petzka</text><text x="0" y="52" fill="#000000" font-size="5px" font-weight="bold" font-family="'Helvetica Neue', Helvetica, Arial-Unicode, Arial, Sans-serif">from the Noun Project</text></svg>