<svg xmlns="http://www.w3.org/2000/svg" xmlns:xlink="http://www.w3.org/1999/xlink" version="1.1" x="0px" y="0px" viewBox="0 0 100 125" style="enable-background:new 0 0 100 100;" xml:space="preserve"><style type="text/css">
	.st0{fill:none;stroke:#000000;stroke-width:2;stroke-linecap:round;stroke-linejoin:round;stroke-miterlimit:10;}
</style><path d="M83.1,36.7c0.6,0,1-0.4,1-1v-6.4c0-0.6-0.4-1-1-1H16.9c-0.6,0-1,0.4-1,1v6.4c0,0.6,0.4,1,1,1h25.8l-11.4,18H12.1  c-0.6,0-1,0.4-1,1v4.7c0,0.6,0.4,1,1,1h15L16.6,78.1c-0.2,0.3-0.2,0.7,0,1c0.2,0.3,0.5,0.5,0.9,0.5c0,0,0,0,0,0l5.5-0.1  c0.3,0,0.7-0.2,0.8-0.5L35,61.4h31.3l11.1,17.7c0.2,0.3,0.5,0.5,0.8,0.5h5.2c0.4,0,0.7-0.2,0.9-0.5c0.2-0.3,0.2-0.7,0-1L73.8,61.4  h14.1c0.6,0,1-0.4,1-1v-4.7c0-0.6-0.4-1-1-1H69.6l-11.4-18H83.1z M13.1,56.7h17l-1.7,2.7H13.1V56.7z M17.9,30.3h64.1v4.4H17.9V30.3z   M50.7,36.7l11.4,18H39.2l11.4-18H50.7z M22.4,77.6l-3.1,0l25.8-40.9h3.1L22.4,77.6z M65,59.4H36.2l0-0.1l1.7-2.7h25.4L65,59.4  L65,59.4z M70.8,56.7h16.1v2.7H72.5l-1.4-2.3L70.8,56.7z M81.6,77.6h-2.8L53.1,36.7h2.8L81.6,77.6z"/></svg>