<svg xmlns="http://www.w3.org/2000/svg" viewBox="0 0 64 80" x="0px" y="0px"><title>Transportation</title><g><path d="M60.82,31.42A1,1,0,0,0,60,31H33V25H47a3,3,0,0,0,3,3h6a3,3,0,0,0,3-3V23a3,3,0,0,0-3-3H50a3,3,0,0,0-3,3H14a1,1,0,0,0,0,2H31v6H4a1,1,0,0,0-.94,1.33L7.19,44c-.37,0-.76,0-1.19,0a1,1,0,0,0,0,2,11.57,11.57,0,0,1,4.84.93A13.27,13.27,0,0,0,16.4,48,13.34,13.34,0,0,0,22,46.93,11.5,11.5,0,0,1,26.8,46a11.48,11.48,0,0,1,4.83.93A13.34,13.34,0,0,0,37.19,48a13.27,13.27,0,0,0,5.56-1.07A11.58,11.58,0,0,1,47.6,46a11.57,11.57,0,0,1,4.84.93,16.8,16.8,0,0,0,2,.68h0A14.47,14.47,0,0,0,58,48a1,1,0,0,0,0-2,14,14,0,0,1-1.84-.11l4.78-13.56A1,1,0,0,0,60.82,31.42ZM49,23a1,1,0,0,1,1-1h6a1,1,0,0,1,1,1v2a1,1,0,0,1-1,1H50a1,1,0,0,1-1-1Zm5.19,22.44c-.35-.11-.69-.24-1-.37A13.34,13.34,0,0,0,47.6,44,13.27,13.27,0,0,0,42,45.07a11.58,11.58,0,0,1-4.85.93,11.57,11.57,0,0,1-4.84-.93A13.25,13.25,0,0,0,26.8,44a13.27,13.27,0,0,0-5.56,1.07A11.57,11.57,0,0,1,16.4,46a11.5,11.5,0,0,1-4.84-.93,15.66,15.66,0,0,0-2.13-.7L5.41,33H58.59Z"/><path d="M57,51a11.53,11.53,0,0,1-4.84-.93A13.34,13.34,0,0,0,46.6,49,13.27,13.27,0,0,0,41,50.07a11.58,11.58,0,0,1-4.85.93,11.57,11.57,0,0,1-4.84-.93A13.25,13.25,0,0,0,25.8,49a13.27,13.27,0,0,0-5.56,1.07A11.57,11.57,0,0,1,15.4,51a11.5,11.5,0,0,1-4.84-.93A13.31,13.31,0,0,0,5,49a1,1,0,0,0,0,2,11.57,11.57,0,0,1,4.84.93A13.27,13.27,0,0,0,15.4,53,13.34,13.34,0,0,0,21,51.93,11.5,11.5,0,0,1,25.8,51a11.48,11.48,0,0,1,4.83.93A13.34,13.34,0,0,0,36.19,53a13.27,13.27,0,0,0,5.56-1.07A11.58,11.58,0,0,1,46.6,51a11.57,11.57,0,0,1,4.84.93A13.27,13.27,0,0,0,57,53a1,1,0,0,0,0-2Z"/></g><text x="0" y="79" fill="#000000" font-size="5px" font-weight="bold" font-family="'Helvetica Neue', Helvetica, Arial-Unicode, Arial, Sans-serif">Created by Wahyu Unggul Sejati</text><text x="0" y="84" fill="#000000" font-size="5px" font-weight="bold" font-family="'Helvetica Neue', Helvetica, Arial-Unicode, Arial, Sans-serif">from the Noun Project</text></svg>