<svg xmlns="http://www.w3.org/2000/svg" viewBox="0 0 66 45" x="0px" y="0px"><path fill="#000000" fill-rule="evenodd" d="M239.065419,944 L239.065419,944 L242,944 C242.552285,944 243,944.447715 243,945 C243,945.552285 242.552285,946 242,946 L223.917042,946 C223.971601,946.325208 224,946.659288 224,947 C224,950.313708 221.313708,953 218,953 C214.686292,953 212,950.313708 212,947 C212,946.659288 212.028399,946.325208 212.082958,946 L191,946 C190.734784,946 190.48043,945.894643 190.292893,945.707107 L187.585786,943 L178,943 C177.447715,943 177,942.552285 177,942 C177,941.447715 177.447715,941 178,941 L188,941 C188.265216,941 188.51957,941.105357 188.707107,941.292893 L191.414214,944 L198.838038,944.252252 L185.292893,930.707107 C184.662928,930.077142 185.109095,929 186,929 L197.609016,929 L210.32172,917.265197 C210.506442,917.094684 210.74861,917 211,917 L231,917 C231.403701,917 231.767807,917.242738 231.923077,917.615385 L236.666667,929 L242,929 C242.552285,929 243,929.447715 243,930 C243,934.534987 242.02446,938.437149 240.394427,941.697214 C239.944085,942.597899 239.49109,943.365374 239.065419,944 Z M234.5,929 L230.333333,919 L211.390984,919 L200.557651,929 L234.5,929 Z M201.414214,944 L201.414214,944 L212.802692,944 C213.840122,942.206595 215.779153,941 218,941 C220.220847,941 222.159879,942.206596 223.197307,944 L236.556252,944 C236.673799,943.860466 236.817169,943.681275 236.98125,943.4625 C237.532142,942.727977 238.086319,941.841295 238.605573,940.802786 C239.980914,938.052105 240.852238,934.786915 240.982878,931 L188.414214,931 L201.414214,944 Z M218,951 C220.209139,951 222,949.209139 222,947 C222,944.790861 220.209139,943 218,943 C215.790861,943 214,944.790861 214,947 C214,949.209139 215.790861,951 218,951 Z" transform="translate(-177 -917)"/><text x="0" y="51" fill="#000000" font-size="5px" font-weight="bold" font-family="'Helvetica Neue', Helvetica, Arial-Unicode, Arial, Sans-serif">Created by Andrejs Kirma</text><text x="0" y="56" fill="#000000" font-size="5px" font-weight="bold" font-family="'Helvetica Neue', Helvetica, Arial-Unicode, Arial, Sans-serif">from the Noun Project</text></svg>