<svg xmlns="http://www.w3.org/2000/svg" xmlns:xlink="http://www.w3.org/1999/xlink" version="1.1" x="0px" y="0px" viewBox="0 0 100 125" enable-background="new 0 0 100 100" xml:space="preserve"><path d="M22,30.994h56c0.553,0,1-0.447,1-1s-0.447-1-1-1H61.956v-7.522c0-0.553-0.447-1-1-1H39.044c-0.553,0-1,0.447-1,1v7.522H22  c-0.553,0-1,0.447-1,1S21.447,30.994,22,30.994z M40.044,22.472h19.912v6.522H40.044V22.472z"/><path d="M29.386,35.162c-0.553,0-1,0.447-1,1v42.365c0,0.553,0.447,1,1,1h41.229c0.553,0,1-0.447,1-1V36.162c0-0.553-0.447-1-1-1  s-1,0.447-1,1v41.365H30.386V36.162C30.386,35.61,29.938,35.162,29.386,35.162z"/><path d="M51,68.788V42.404c0-0.553-0.447-1-1-1s-1,0.447-1,1v26.385c0,0.553,0.447,1,1,1S51,69.341,51,68.788z"/><path d="M61.632,68.788V42.404c0-0.553-0.447-1-1-1s-1,0.447-1,1v26.385c0,0.553,0.447,1,1,1S61.632,69.341,61.632,68.788z"/><path d="M40.368,68.788V42.404c0-0.553-0.447-1-1-1s-1,0.447-1,1v26.385c0,0.553,0.447,1,1,1S40.368,69.341,40.368,68.788z"/><text x="0" y="115" fill="#000000" font-size="5px" font-weight="bold" font-family="'Helvetica Neue', Helvetica, Arial-Unicode, Arial, Sans-serif">Created by Spes</text><text x="0" y="120" fill="#000000" font-size="5px" font-weight="bold" font-family="'Helvetica Neue', Helvetica, Arial-Unicode, Arial, Sans-serif">from the Noun Project</text></svg>