<svg xmlns="http://www.w3.org/2000/svg" xmlns:xlink="http://www.w3.org/1999/xlink" version="1.1" x="0px" y="0px" viewBox="0 0 90 112.5" style="enable-background:new 0 0 90 90;" xml:space="preserve"><path d="M60.8867188,36.5219116l2.8076172-24.9418335c0.0039063-0.0371094,0.0058594-0.0751953,0.0058594-0.1123047  c0-3.9619141-3.6259766-7.1855469-8.0830078-7.1855469h-21.234375c-4.4570313,0-8.0830078,3.2236328-8.0830078,7.1855469  c0,0.0371094,0.0019531,0.0751953,0.0058594,0.1123047l2.8076172,24.9418335  c-4.6618652,1.3602295-7.8613281,3.4030762-7.8613281,6.0767212v4.3955078c0,1.0333862,0.4833984,1.9712524,1.3380737,2.8135376  c0.9879761,8.0532227,6.1147461,14.6580811,13.1204224,17.8082886l-4.6313477,13.4299316  c-0.0361328,0.1054688-0.0546875,0.2148438-0.0546875,0.3261719c0,3.4306641,8.7851563,4.3457031,13.9755859,4.3457031  s13.9755859-0.9150391,13.9755859-4.3457031c0-0.1113281-0.0185547-0.2207031-0.0546875-0.3261719l-4.628418-13.4268188  c7.0083008-3.1472778,12.1254272-9.7501831,13.1141357-17.8082275c0.8567505-0.8430786,1.3414307-1.7819824,1.3414307-2.8167114  v-4.3955078C68.7480469,39.9249878,65.548584,37.8821411,60.8867188,36.5219116z M34.3828125,6.2822266h21.234375  c2.9523926,0,5.4163818,1.8034668,5.965332,4.1855469H28.4174805C28.9664307,8.0856934,31.4304199,6.2822266,34.3828125,6.2822266z   M28.418457,12.4677734H61.581543L58.9307251,36.010498C54.7993164,35.0443115,49.8375854,34.5439453,45,34.5439453  s-9.7993164,0.5003662-13.9307251,1.4665527L28.418457,12.4677734z M56.9384766,81.4306641  C56.4150391,82.2744141,52.1103516,83.7177734,45,83.7177734c-7.1435547,0-11.4550781-1.4560547-11.9423828-2.2744141  l4.5136108-13.088562C39.9042969,69.1630249,42.3987427,69.6210938,45,69.6210938  c2.6035767,0,5.0985107-0.4574585,7.4313354-1.2642212L56.9384766,81.4306641z M52.7296753,66.1246338  c-0.0032959,0.0010986-0.0066528,0.0001831-0.0099487,0.0013428c-0.0081177,0.0028076-0.0133057,0.0095215-0.0213013,0.0125122  C50.31604,67.0922241,47.7189941,67.6210938,45,67.6210938c-9.8106689,0-18.092041-6.8255615-20.1156006-16.1989746  C29.367981,53.7988892,37.3414917,55.0498047,45,55.0498047c7.6566162,0,15.6281738-1.2502441,20.1123657-3.6259155  C63.6533203,58.1940918,58.9401245,63.6262817,52.7296753,66.1246338z M66.7480469,46.9941406  c0,0.4418945-0.2675171,0.9147949-0.7565918,1.3935547c-0.1189575,0.0686646-0.2196045,0.1567383-0.3015747,0.2670288  C63.0757446,50.8331299,55.6818237,53.0498047,45,53.0498047c-13.4746094,0-21.7480469-3.5273438-21.7480469-6.0556641v-1.0038452  C27.1819458,49.0392456,36.2954102,50.6542969,45,50.6542969s17.8180542-1.6150513,21.7480469-4.6640015V46.9941406z   M32.1914063,45.3710938c0-1.1142578,4.5205078-3.2822266,12.8085938-3.2822266s12.8085938,2.1679688,12.8085938,3.2822266  S53.2880859,48.6542969,45,48.6542969S32.1914063,46.4853516,32.1914063,45.3710938z M59.116272,47.0866699  c0.4420166-0.5178223,0.6923218-1.0887451,0.6923218-1.7155762c0-3.4677734-7.4492188-5.2822266-14.8085938-5.2822266  s-14.8085938,1.8144531-14.8085938,5.2822266c0,0.6268311,0.2503052,1.1977539,0.6923218,1.7155762  c-4.8852539-1.2538452-7.6317749-3.0344849-7.6317749-4.4880371c0-2.5283203,8.2734375-6.0546875,21.7480469-6.0546875  s21.7480469,3.5263672,21.7480469,6.0546875C66.7480469,44.0521851,64.0015259,45.8328247,59.116272,47.0866699z"/></svg>