<svg xmlns:x="http://ns.adobe.com/Extensibility/1.0/" xmlns:i="http://ns.adobe.com/AdobeIllustrator/10.0/" xmlns:graph="http://ns.adobe.com/Graphs/1.0/" xmlns="http://www.w3.org/2000/svg" xmlns:xlink="http://www.w3.org/1999/xlink" version="1.1" x="0px" y="0px" viewBox="0 0 100 125" enable-background="new 0 0 100 100" xml:space="preserve"><metadata><sfw xmlns="http://ns.adobe.com/SaveForWeb/1.0/"><slices/><sliceSourceBounds height="68.031" width="39.942" bottomLeftOrigin="true" x="277.236" y="386.484"/></sfw></metadata><g><path d="M68.791,28.782c-1.199-3.83-3.621-7.07-7.062-9.311c-3.439-2.242-7.869-3.487-13.087-3.487h-0.008   c-4.501-0.003-8.393,1.336-11.43,3.55c-3.039,2.216-5.223,5.294-6.392,8.74c-0.748,2.202-1.076,4.531-1.076,6.872   c0.004,4.95,1.456,9.942,3.67,13.961l0,0c1.986,3.595,4.655,9.082,6.641,13.341c0.705,1.511,1.534,3.287,2.218,4.773   c0.342,0.745,0.648,1.414,0.883,1.941c0.117,0.262,0.217,0.489,0.293,0.666c0.075,0.176,0.13,0.311,0.145,0.353v-0.001   c0.834,2.307,1.735,4.805,2.441,7.069c0.354,1.13,0.658,2.204,0.88,3.155c0.223,0.95,0.361,1.782,0.394,2.397   c0.04,0.708,0.646,1.25,1.353,1.211c0.042-0.003,0.081-0.012,0.12-0.019c0.664,0.104,1.303-0.319,1.45-0.985l0.003-0.013   c0.072-0.326,1.499-6.511,4.877-13.559c0.488-1.02,1.354-2.704,2.311-4.516c0.959-1.812,2.01-3.76,2.883-5.334   c2.92-5.263,5.358-10.219,6.844-13.6c1.704-3.881,2.536-7.669,2.536-11.198C69.679,32.679,69.381,30.661,68.791,28.782z    M64.791,44.957c-1.441,3.284-3.855,8.193-6.736,13.387c-0.885,1.594-1.942,3.553-2.908,5.382c-0.966,1.83-1.836,3.521-2.355,4.604   c-1.778,3.713-3.029,7.169-3.844,9.737c-0.305-1.077-0.659-2.209-1.046-3.367c-0.604-1.807-1.274-3.661-1.901-5.392v-0.001   c-0.05-0.14-0.113-0.289-0.198-0.489c-0.293-0.685-0.837-1.878-1.469-3.242c-0.629-1.365-1.342-2.892-1.958-4.213   c-2.004-4.295-4.678-9.797-6.72-13.497l0,0c-2.014-3.638-3.356-8.278-3.351-12.72c0-2.1,0.295-4.152,0.939-6.048   c1.008-2.969,2.878-5.599,5.473-7.488c2.597-1.889,5.92-3.058,9.918-3.061h0.005h0.002c4.814,0.001,8.729,1.147,11.685,3.073   c2.955,1.932,4.979,4.64,6.016,7.928c0.506,1.613,0.77,3.37,0.77,5.24C67.112,37.914,66.373,41.357,64.791,44.957z"/><path d="M54.489,29.621c-0.486-0.431-1.054-0.787-1.688-1.032c-0.567-0.219-1.663-0.671-2.688-0.671   c-1.212,0-2.305,0.254-3.253,0.67c-1.424,0.622-2.5,1.658-3.184,2.856c-0.688,1.203-1.004,2.558-1.005,3.903   c0.003,1.8,0.564,3.601,1.692,5.028c0.564,0.712,1.276,1.326,2.123,1.769c0.845,0.44,1.823,0.703,2.883,0.736   c0.101,0.003,0.201,0.004,0.299,0.004c1.183,0.001,2.254-0.228,3.179-0.648c1.393-0.632,2.424-1.691,3.074-2.902   c0.654-1.213,0.951-2.573,0.953-3.916c0-0.869-0.126-1.734-0.376-2.557C56.121,31.631,55.465,30.485,54.489,29.621z M54.018,37.281   c-0.289,0.879-0.777,1.627-1.467,2.155c-0.691,0.528-1.597,0.877-2.884,0.882c-0.072,0-0.145-0.001-0.218-0.004   c-0.692-0.022-1.272-0.186-1.778-0.447c-0.754-0.395-1.356-1.028-1.78-1.828c-0.424-0.794-0.654-1.747-0.653-2.691   c0-0.626,0.1-1.246,0.297-1.814c0.298-0.854,0.802-1.585,1.534-2.122c0.503-0.365,1.125-0.649,1.906-0.802   c1.496-0.146,2.807,0.3,3.226,0.524c0.314,0.169,0.599,0.393,0.854,0.674c0.384,0.42,0.701,0.966,0.918,1.591   c0.218,0.624,0.334,1.322,0.333,2.02C54.307,36.058,54.209,36.695,54.018,37.281z"/></g><text x="0" y="115" fill="#000000" font-size="5px" font-weight="bold" font-family="'Helvetica Neue', Helvetica, Arial-Unicode, Arial, Sans-serif">Created by Maria Maldonado</text><text x="0" y="120" fill="#000000" font-size="5px" font-weight="bold" font-family="'Helvetica Neue', Helvetica, Arial-Unicode, Arial, Sans-serif">from the Noun Project</text></svg>