<svg xmlns:x="http://ns.adobe.com/Extensibility/1.0/" xmlns:i="http://ns.adobe.com/AdobeIllustrator/10.0/" xmlns:graph="http://ns.adobe.com/Graphs/1.0/" xmlns="http://www.w3.org/2000/svg" xmlns:xlink="http://www.w3.org/1999/xlink" version="1.1" x="0px" y="0px" viewBox="0 0 64 80" enable-background="new 0 0 64 64" xml:space="preserve"><metadata><sfw xmlns="http://ns.adobe.com/SaveForWeb/1.0/"><slices/><sliceSourceBounds height="16384" width="16389" x="-8165" y="-8160" bottomLeftOrigin="true"/></sfw></metadata><g><g><path d="M39.604,11.5c-2.315,0-4.985,0.605-7.583,1.702C30.841,9.824,27.61,7.5,24,7.5c-4.687,0-8.5,3.813-8.5,8.5v40    c0,0.276,0.224,0.5,0.5,0.5s0.5-0.224,0.5-0.5V16c0-4.136,3.364-7.5,7.5-7.5c3.214,0,6.074,2.093,7.093,5.117    c-6.188,2.915-9.859,7.675-8.376,10.938c0.055,0.121,0.155,0.214,0.279,0.261c0.057,0.021,0.116,0.032,0.176,0.032    c0.071,0,0.141-0.015,0.207-0.045l21.849-9.932c0.251-0.114,0.362-0.411,0.248-0.662C44.693,12.487,42.553,11.5,39.604,11.5z     M23.465,23.665c-0.642-2.738,3-6.857,8.355-9.291c2.66-1.209,5.425-1.875,7.784-1.875c2.253,0,3.931,0.609,4.708,1.688    L23.465,23.665z"/><path d="M37.861,26.457c-0.114-0.251-0.41-0.361-0.662-0.248c-0.251,0.114-0.362,0.411-0.248,0.662l0.828,1.821    c0.084,0.184,0.266,0.293,0.455,0.293c0.069,0,0.14-0.014,0.207-0.045c0.251-0.114,0.362-0.411,0.248-0.662L37.861,26.457z"/><path d="M41.172,33.74c-0.114-0.252-0.409-0.36-0.662-0.248c-0.251,0.114-0.362,0.411-0.248,0.662l0.828,1.821    c0.084,0.185,0.266,0.293,0.455,0.293c0.069,0,0.14-0.015,0.207-0.045c0.251-0.114,0.362-0.411,0.248-0.662L41.172,33.74z"/><path d="M29.751,27.947c-0.113-0.25-0.409-0.365-0.662-0.248c-0.251,0.114-0.362,0.411-0.248,0.662l0.828,1.82    c0.083,0.184,0.265,0.293,0.456,0.293c0.069,0,0.139-0.014,0.207-0.045c0.251-0.114,0.362-0.411,0.248-0.662L29.751,27.947z"/><path d="M33.062,35.23c-0.114-0.251-0.411-0.362-0.662-0.248c-0.251,0.114-0.362,0.411-0.248,0.662l0.828,1.82    c0.084,0.185,0.266,0.293,0.455,0.293c0.069,0,0.14-0.015,0.207-0.045c0.251-0.114,0.362-0.411,0.248-0.662L33.062,35.23z"/><path d="M44.317,21.327c-0.115-0.251-0.409-0.363-0.662-0.249c-0.251,0.114-0.362,0.411-0.248,0.662l0.827,1.821    c0.084,0.185,0.266,0.293,0.455,0.293c0.069,0,0.14-0.014,0.207-0.045c0.251-0.114,0.362-0.411,0.248-0.662L44.317,21.327z"/><path d="M48.455,30.43l-0.827-1.82c-0.114-0.251-0.41-0.361-0.662-0.248c-0.251,0.114-0.362,0.411-0.248,0.662l0.827,1.82    c0.084,0.184,0.266,0.293,0.455,0.293c0.069,0,0.14-0.014,0.207-0.045C48.458,30.978,48.569,30.681,48.455,30.43z"/></g></g><text x="0" y="79" fill="#000000" font-size="5px" font-weight="bold" font-family="'Helvetica Neue', Helvetica, Arial-Unicode, Arial, Sans-serif">Created by Ralf Schmitzer</text><text x="0" y="84" fill="#000000" font-size="5px" font-weight="bold" font-family="'Helvetica Neue', Helvetica, Arial-Unicode, Arial, Sans-serif">from the Noun Project</text></svg>