<svg xmlns="http://www.w3.org/2000/svg" viewBox="0 0 100 125" x="0px" y="0px"><title>Adventure</title><g data-name="Layer 2"><path d="M31.25482,58.04468a1,1,0,0,0,1.3609-.38458l2.9289-5.23658a1,1,0,0,0-1.74555-.97632l-2.92889,5.23658A1,1,0,0,0,31.25482,58.04468Z"/><path d="M37.11261,47.57159a1,1,0,0,0,1.3609-.38464l2.92889-5.23657a1,1,0,1,0-1.74548-.97626l-2.929,5.23657A1,1,0,0,0,37.11261,47.57159Z"/><path d="M25.397,68.51782a1,1,0,0,0,1.3609-.38464l2.929-5.23657a1,1,0,0,0-1.74555-.97626l-2.92889,5.23651A1.00008,1.00008,0,0,0,25.397,68.51782Z"/><path d="M19.53918,78.99091a1,1,0,0,0,1.36091-.38459L23.829,73.36975a1,1,0,0,0-1.74548-.97632L19.1546,77.63A1,1,0,0,0,19.53918,78.99091Z"/><path d="M42.9704,37.09845a1,1,0,0,0,1.3609-.38458l2.92889-5.23658a1,1,0,1,0-1.74548-.97631l-2.92889,5.23657A1,1,0,0,0,42.9704,37.09845Z"/><path d="M9.48053,89.85449a1,1,0,0,0,1.374-.335l5.63989-9.2774,4.08075,4.08032a1.00736,1.00736,0,0,0,.70508.29242l.002.00042H35.64111c.00946,0,.01837-.00335.02777-.0036.02948-.00085.05707-.00781.08612-.01117a.96609.96609,0,0,0,.463-.17858.97648.97648,0,0,0,.0791-.058.9887.9887,0,0,0,.19348-.22107L49,64.00281V83.61523a1,1,0,0,0,1,1H78.71777a.98068.98068,0,0,0,.68763-.2799c.00585-.00562.01379-.00727.01953-.013h-.00006l4.08026-4.08026,5.64038,9.2774a1,1,0,0,0,1.709-1.03894l-6.293-10.35083L51.17133,18.43048l3.25055-4.87579a1,1,0,1,0-1.66407-1.10938L50,16.582l-2.75781-4.13672a1,1,0,1,0-1.66407,1.10938l3.25055,4.87579-33.39111,59.7-6.292,10.3501A1,1,0,0,0,9.48053,89.85449Zm27.16058-9.74457V61.49756H48.20166L42.76288,70.254Zm41.66242,2.50531H50.99994V60.49786L51,60.49756V22.22119l31.45618,56.2414ZM49,22.22119V59.49756H35.64111a1.00006,1.00006,0,0,0-1,1V82.61523H21.69647l-3.281-3.28064-.87214-.87207Z"/><path d="M78.48682,77.512a1,1,0,0,0,1.74554-.97632l-2.92883-5.23657a1,1,0,0,0-1.74555.97626Z"/><path d="M60.91376,46.09241a1,1,0,0,0,1.74554-.97626l-2.92889-5.23657a1,1,0,1,0-1.74549.97625Z"/><path d="M72.62915,67.03876a1,1,0,1,0,1.74548-.97626L71.4458,60.82593a1,1,0,1,0-1.74548.97626Z"/><path d="M52.12726,30.38263l2.92883,5.23663a1,1,0,1,0,1.74548-.97632l-2.92883-5.23657a1,1,0,1,0-1.74548.97626Z"/><path d="M66.77148,56.56561a1,1,0,1,0,1.74549-.97632l-2.92884-5.23657a1,1,0,1,0-1.74554.97626Z"/></g><text x="0" y="115" fill="#000000" font-size="5px" font-weight="bold" font-family="'Helvetica Neue', Helvetica, Arial-Unicode, Arial, Sans-serif">Created by Anthony Ledoux</text><text x="0" y="120" fill="#000000" font-size="5px" font-weight="bold" font-family="'Helvetica Neue', Helvetica, Arial-Unicode, Arial, Sans-serif">from the Noun Project</text></svg>