<svg xmlns="http://www.w3.org/2000/svg" xmlns:xlink="http://www.w3.org/1999/xlink" version="1.1" x="0px" y="0px" viewBox="0 0 100 125" style="enable-background:new 0 0 100 100;" xml:space="preserve"><g><path d="M72.946,56.959c-0.012-0.058-0.033-0.112-0.05-0.168c-0.02-0.069-0.036-0.138-0.064-0.205   c-0.028-0.067-0.066-0.128-0.1-0.191c-0.028-0.051-0.05-0.104-0.083-0.154c-0.147-0.219-0.335-0.408-0.555-0.554   c-0.047-0.032-0.099-0.053-0.148-0.081c-0.065-0.036-0.127-0.075-0.196-0.103c-0.065-0.027-0.133-0.042-0.2-0.062   c-0.058-0.017-0.113-0.039-0.173-0.051c-0.258-0.051-0.525-0.051-0.783,0c-0.06,0.012-0.115,0.034-0.173,0.051   c-0.067,0.02-0.135,0.035-0.2,0.062c-0.069,0.028-0.131,0.067-0.196,0.103c-0.049,0.027-0.101,0.049-0.148,0.081   c-0.11,0.074-0.213,0.157-0.307,0.251l-8.608,8.609c-0.781,0.781-0.781,2.047,0,2.828c0.391,0.391,0.902,0.586,1.414,0.586   s1.023-0.195,1.414-0.586l5.195-5.196v13.682C68.985,84.208,62.194,91,53.847,91s-15.139-6.792-15.139-15.139V24.177   c4.388-0.925,7.693-4.824,7.693-9.483C46.401,9.349,42.053,5,36.708,5s-9.693,4.349-9.693,9.693c0,4.659,3.305,8.559,7.693,9.483   v51.684C34.708,86.414,43.294,95,53.847,95s19.139-8.586,19.139-19.139v-18.51c0,0,0,0,0,0   C72.985,57.219,72.971,57.088,72.946,56.959z M31.015,14.693c0-3.139,2.554-5.693,5.693-5.693s5.693,2.554,5.693,5.693   s-2.554,5.693-5.693,5.693S31.015,17.833,31.015,14.693z"/></g></svg>