<svg xmlns="http://www.w3.org/2000/svg" xmlns:xlink="http://www.w3.org/1999/xlink" version="1.1" x="0px" y="0px" viewBox="0 0 24 30" enable-background="new 0 0 24 24" xml:space="preserve"><path d="M0.029,23.409c-0.021,0.154,0.032,0.31,0.143,0.419c0.095,0.094,0.222,0.146,0.354,0.146c0.021,0,0.044-0.001,0.066-0.004  c0.37-0.049,8.977-1.27,15.331-7.352l1.713,1.713l-0.09,0.09c-0.879,0.879-0.934,2.253-0.124,3.063l1.78,1.78  c0.37,0.371,0.874,0.575,1.418,0.575c0.602,0,1.201-0.255,1.646-0.699l0.876-0.876c0.878-0.878,0.935-2.252,0.124-3.063l-1.78-1.78  c-0.778-0.78-2.217-0.722-3.063,0.124l-0.079,0.079l-1.714-1.714c6.073-6.353,7.292-14.95,7.342-15.32  c0.021-0.154-0.032-0.31-0.143-0.419s-0.261-0.164-0.42-0.142c-0.37,0.049-8.966,1.269-15.319,7.341L6.376,5.658l0.079-0.079  C6.874,5.16,7.121,4.616,7.15,4.048c0.031-0.588-0.173-1.132-0.572-1.532l-1.78-1.781C4.02-0.045,2.582,0.013,1.735,0.859  L0.859,1.736C-0.02,2.614-0.075,3.988,0.735,4.798l1.78,1.781c0.37,0.371,0.874,0.575,1.418,0.575c0.601,0,1.2-0.255,1.645-0.699  l0.09-0.09l1.713,1.713C1.3,14.432,0.079,23.039,0.029,23.409z M19.129,18.254c0.258-0.258,0.601-0.406,0.938-0.406  c0.277,0,0.529,0.1,0.711,0.282l1.78,1.78c0.42,0.42,0.364,1.16-0.124,1.649l-0.876,0.876c-0.469,0.469-1.246,0.529-1.649,0.124  l-1.78-1.78c-0.42-0.42-0.364-1.16,0.124-1.649l0.09-0.09l0.884,0.884c0.098,0.098,0.226,0.146,0.354,0.146  c0.128,0,0.256-0.049,0.354-0.146c0.195-0.195,0.195-0.512,0-0.707l-0.884-0.884L19.129,18.254z M4.871,5.748  c-0.47,0.47-1.246,0.527-1.648,0.124l-1.78-1.781c-0.42-0.42-0.364-1.16,0.124-1.648l0.876-0.876C2.7,1.308,3.042,1.16,3.38,1.16  c0.277,0,0.529,0.1,0.711,0.282l1.78,1.781C6.068,3.42,6.168,3.694,6.152,3.995C6.135,4.317,5.991,4.628,5.748,4.871L5.669,4.951  L4.785,4.067c-0.195-0.195-0.512-0.195-0.707,0s-0.195,0.512,0,0.707l0.883,0.883L4.871,5.748z M1.139,22.862  c0.415-2.151,2.068-8.963,6.948-14.078l1.549,1.549c-1.266,1.513-1.478,3.396-0.421,4.454c0.441,0.442,1.046,0.675,1.747,0.675  c0.901,0,1.876-0.416,2.701-1.101l1.554,1.554C10.102,20.794,3.29,22.447,1.139,22.862z M13.335,13.335  c-0.705,0.705-1.593,1.126-2.373,1.126c-0.3,0-0.724-0.066-1.04-0.382c-0.723-0.723-0.382-2.286,0.744-3.413  c0.705-0.705,1.592-1.126,2.372-1.126c0.3,0,0.725,0.066,1.04,0.382c0.332,0.332,0.453,0.852,0.343,1.463  C14.299,12.064,13.913,12.757,13.335,13.335z M22.862,1.138c-0.413,2.149-2.059,8.948-6.939,14.068l-1.548-1.548  c0.531-0.64,0.898-1.366,1.029-2.095c0.171-0.944-0.05-1.778-0.62-2.348c-1.007-1.006-2.972-0.779-4.439,0.413L8.794,8.077  C13.909,3.204,20.713,1.553,22.862,1.138z"/><text x="0" y="39" fill="#000000" font-size="5px" font-weight="bold" font-family="'Helvetica Neue', Helvetica, Arial-Unicode, Arial, Sans-serif">Created by Atif Arshad</text><text x="0" y="44" fill="#000000" font-size="5px" font-weight="bold" font-family="'Helvetica Neue', Helvetica, Arial-Unicode, Arial, Sans-serif">from the Noun Project</text></svg>