<svg xmlns="http://www.w3.org/2000/svg" xmlns:xlink="http://www.w3.org/1999/xlink" version="1.1" x="0px" y="0px" viewBox="0 0 100 125" style="enable-background:new 0 0 100 100;" xml:space="preserve"><path d="M74,24h-5.5v-3.5c0-0.8-0.7-1.5-1.5-1.5s-1.5,0.7-1.5,1.5V24h-31v-3.5c0-0.8-0.7-1.5-1.5-1.5s-1.5,0.7-1.5,1.5V24H26  c-5.2,0-9.5,4.3-9.5,9.5v38c0,5.2,4.3,9.5,9.5,9.5h48c5.2,0,9.5-4.3,9.5-9.5v-38C83.5,28.2,79.2,24,74,24z M26,27h5.5v7.5  c0,0.8,0.7,1.5,1.5,1.5s1.5-0.7,1.5-1.5V27h31v7.5c0,0.8,0.7,1.5,1.5,1.5s1.5-0.7,1.5-1.5V27H74c3.6,0,6.5,2.9,6.5,6.5v10.4h-61  V33.5C19.5,29.9,22.4,27,26,27z M74,78H26c-3.6,0-6.5-2.9-6.5-6.5V46.9h61v24.6C80.5,75.1,77.6,78,74,78z"/><text x="0" y="115" fill="#000000" font-size="5px" font-weight="bold" font-family="'Helvetica Neue', Helvetica, Arial-Unicode, Arial, Sans-serif">Created by icongeek</text><text x="0" y="120" fill="#000000" font-size="5px" font-weight="bold" font-family="'Helvetica Neue', Helvetica, Arial-Unicode, Arial, Sans-serif">from the Noun Project</text></svg>