<svg xmlns:dc="http://purl.org/dc/elements/1.1/" xmlns:cc="http://creativecommons.org/ns#" xmlns:rdf="http://www.w3.org/1999/02/22-rdf-syntax-ns#" xmlns:svg="http://www.w3.org/2000/svg" xmlns="http://www.w3.org/2000/svg" xmlns:sodipodi="http://sodipodi.sourceforge.net/DTD/sodipodi-0.dtd" xmlns:inkscape="http://www.inkscape.org/namespaces/inkscape" viewBox="0 0 32 40" version="1.1" x="0px" y="0px"><g transform="translate(0,-1020.3622)"><path style="color:#000000;font-style:normal;font-variant:normal;font-weight:normal;font-stretch:normal;font-size:medium;line-height:normal;font-family:sans-serif;text-indent:0;text-align:start;text-decoration:none;text-decoration-line:none;text-decoration-style:solid;text-decoration-color:#000000;letter-spacing:normal;word-spacing:normal;text-transform:none;direction:ltr;block-progression:tb;writing-mode:lr-tb;baseline-shift:baseline;text-anchor:start;white-space:normal;clip-rule:nonzero;display:inline;overflow:visible;visibility:visible;opacity:1;isolation:auto;mix-blend-mode:normal;color-interpolation:sRGB;color-interpolation-filters:linearRGB;solid-color:#000000;solid-opacity:1;fill:#000000;fill-opacity:1;fill-rule:evenodd;stroke:none;stroke-width:1px;stroke-linecap:round;stroke-linejoin:round;stroke-miterlimit:4;stroke-dasharray:none;stroke-dashoffset:0;stroke-opacity:1;color-rendering:auto;image-rendering:auto;shape-rendering:auto;text-rendering:auto;enable-background:accumulate" d="m 0.45898438,1027.0527 a 0.50005,0.50005 0 0 0 -0.37890626,0.7696 c 0,0 0.28247248,0.4417 0.59570313,1.0097 0.31323065,0.568 0.65155205,1.2792 0.74609375,1.6836 0.2198846,0.9407 0.00592,2.0367 -0.013672,3.2129 -0.029121,1.7504 -0.57829399,3.6672 -0.171875,5.6289 0.1047195,0.5055 0.2122664,1.1116 0.4296875,1.6895 0.2174211,0.5779 0.5599759,1.1536 1.1601563,1.4941 1.0209769,0.5792 2.2376611,0.2059 3.1035156,-0.2324 0.5507297,-0.2787 0.9690226,-0.8007 1.3183594,-1.2598 0.3493368,-0.4591 0.5976562,-0.8672 0.5976562,-0.8672 a 0.50042655,0.50042655 0 1 0 -0.8554687,-0.5195 c 0,0 -0.22258,0.3679 -0.5371094,0.7813 -0.3145294,0.4133 -0.7527041,0.8603 -0.9746094,0.9726 -0.703588,0.3561 -1.6517697,0.5423 -2.1601562,0.2539 -0.3187021,-0.1808 -0.5437832,-0.5167 -0.7167969,-0.9765 -0.1730137,-0.4599 -0.2785533,-1.017 -0.3867187,-1.5391 -0.3406032,-1.6441 0.1612541,-3.4784 0.1933593,-5.4082 0.017435,-1.047 0.2747562,-2.2315 -0.011719,-3.457 -0.136466,-0.5838 -0.4754233,-1.2361 -0.7871094,-1.8086 0.9255604,0.3124 1.9937942,0.6573 2.9199219,1.0488 1.6737292,0.7076 3.4152628,1.1873 4.6308593,2.248 0.9084958,0.7928 1.5311218,1.9014 2.1542968,3.086 0.623175,1.1845 1.24434,2.4408 2.232422,3.4648 1.225333,1.27 2.717106,2.2366 4.220703,3.0625 1.074539,0.5902 3.160156,1.2578 3.160156,1.2578 a 0.50005,0.50005 0 1 0 0.310547,-0.9492 c 0,0 -2.13138,-0.7129 -2.988281,-1.1836 -1.458937,-0.8014 -2.863307,-1.721 -3.982422,-2.8808 -0.846446,-0.8773 -1.438992,-2.042 -2.068359,-3.2383 -0.629367,-1.1963 -1.298634,-2.4287 -2.3808596,-3.3731 -1.4493002,-1.2646 -3.3144832,-1.7464 -4.8984375,-2.416 -1.4288281,-0.604 -4.2636719,-1.5312 -4.2636719,-1.5312 a 0.50005,0.50005 0 0 0 -0.19726562,-0.024 z"/><path style="color:#000000;font-style:normal;font-variant:normal;font-weight:normal;font-stretch:normal;font-size:medium;line-height:normal;font-family:sans-serif;text-indent:0;text-align:start;text-decoration:none;text-decoration-line:none;text-decoration-style:solid;text-decoration-color:#000000;letter-spacing:normal;word-spacing:normal;text-transform:none;direction:ltr;block-progression:tb;writing-mode:lr-tb;baseline-shift:baseline;text-anchor:start;white-space:normal;clip-rule:nonzero;display:inline;overflow:visible;visibility:visible;opacity:1;isolation:auto;mix-blend-mode:normal;color-interpolation:sRGB;color-interpolation-filters:linearRGB;solid-color:#000000;solid-opacity:1;fill:#000000;fill-opacity:1;fill-rule:evenodd;stroke:none;stroke-width:1px;stroke-linecap:butt;stroke-linejoin:miter;stroke-miterlimit:4;stroke-dasharray:none;stroke-dashoffset:0;stroke-opacity:1;color-rendering:auto;image-rendering:auto;shape-rendering:auto;text-rendering:auto;enable-background:accumulate" d="m 24.259766,1041.8555 -0.166016,0.9863 c 0,0 2.992093,0.5117 4.634766,0.4902 C 29.918254,1043.3165 32,1042.8984 32,1042.8984 l -0.191406,-0.9804 c 0,0 -2.142376,0.4035 -3.09375,0.416 -1.404497,0.018 -4.455078,-0.4785 -4.455078,-0.4785 z"/><path style="color:#000000;font-style:normal;font-variant:normal;font-weight:normal;font-stretch:normal;font-size:medium;line-height:normal;font-family:sans-serif;text-indent:0;text-align:start;text-decoration:none;text-decoration-line:none;text-decoration-style:solid;text-decoration-color:#000000;letter-spacing:normal;word-spacing:normal;text-transform:none;direction:ltr;block-progression:tb;writing-mode:lr-tb;baseline-shift:baseline;text-anchor:start;white-space:normal;clip-rule:nonzero;display:inline;overflow:visible;visibility:visible;opacity:1;isolation:auto;mix-blend-mode:normal;color-interpolation:sRGB;color-interpolation-filters:linearRGB;solid-color:#000000;solid-opacity:1;fill:#000000;fill-opacity:1;fill-rule:evenodd;stroke:none;stroke-width:1px;stroke-linecap:round;stroke-linejoin:round;stroke-miterlimit:4;stroke-dasharray:none;stroke-dashoffset:0;stroke-opacity:1;color-rendering:auto;image-rendering:auto;shape-rendering:auto;text-rendering:auto;enable-background:accumulate" d="m 19.953125,1028.0879 c -0.458172,0.07 -0.790227,0.3634 -1.023437,0.6621 -0.233211,0.2987 -0.392399,0.626 -0.517579,0.8965 -0.303557,0.6558 -0.390766,1.5206 -0.439453,2.2637 -0.03527,0.5382 -0.02661,0.7632 -0.02539,0.9804 l -1.8125,0.6153 a 0.50005,0.50005 0 0 0 -0.304688,0.6562 l 0.855469,2.1836 a 0.50005,0.50005 0 0 0 0.539062,0.3125 c 0,0 0.563285,-0.085 1.222657,-0.2617 0.659371,-0.1772 1.419244,-0.4066 1.93164,-0.9082 0.441446,-0.4322 0.419379,-0.9807 0.458985,-1.3535 0.0198,-0.1865 0.04732,-0.339 0.07617,-0.4141 0.02886,-0.075 0.02202,-0.059 0.04492,-0.068 -0.04876,0.021 -0.06161,-0 0.01953,0.039 0.08114,0.043 0.201928,0.1383 0.304687,0.2324 1.166984,1.0693 2.227921,2.6042 2.164063,4.0059 -0.03281,0.7202 -0.54228,1.3511 -1.214844,2.0586 -0.672564,0.7074 -1.48941,1.4535 -1.824219,2.5117 -0.217291,0.6867 -0.14578,1.3723 -0.08008,1.9648 0.211554,1.908 1.369141,5.2598 1.369141,5.2598 a 0.50005,0.50005 0 0 0 0.568359,0.3301 l 2.816406,-0.5449 a 0.50005,0.50005 0 0 0 0.363281,-0.6914 c 0,0 -0.401933,-0.9235 -0.759765,-2.0801 -0.357833,-1.1566 -0.636972,-2.5653 -0.492188,-3.3262 0.09009,-0.4734 0.407087,-0.9091 0.826172,-1.3848 0.419086,-0.4756 0.929098,-0.9733 1.269531,-1.6328 0.365787,-0.7085 0.879662,-1.5248 0.91211,-2.5175 0.04485,-1.3723 -0.578754,-2.6046 -1.083984,-3.6934 -0.692613,-1.4926 -1.512479,-3.0449 -2.775391,-4.2422 -0.402227,-0.3813 -0.8737,-0.8719 -1.423828,-1.2637 -0.550129,-0.3917 -1.21889,-0.7036 -1.964844,-0.5898 z m 0.150391,0.9883 c 0.38711,-0.059 0.790785,0.1001 1.234375,0.416 0.443589,0.3158 0.888461,0.77 1.314453,1.1738 1.104494,1.0471 1.882562,2.4826 2.558594,3.9395 0.511025,1.1013 1.024122,2.2013 0.990234,3.2383 -0.02103,0.6434 -0.41409,1.3427 -0.800781,2.0917 -0.241913,0.4687 -0.685437,0.924 -1.132813,1.4317 -0.447376,0.5077 -0.909805,1.0858 -1.05664,1.8574 -0.219286,1.1524 0.143577,2.5934 0.519531,3.8086 0.276121,0.8925 0.445398,1.2648 0.585937,1.6055 l -1.78125,0.3457 c -0.160463,-0.4879 -1.048109,-3.1428 -1.21289,-4.6289 -0.06358,-0.5735 -0.09586,-1.1202 0.04102,-1.5528 0.228032,-0.7207 0.897834,-1.393 1.59375,-2.125 0.695916,-0.732 1.436247,-1.5609 1.488281,-2.7031 0.08674,-1.9039 -1.201006,-3.6094 -2.486328,-4.7871 -0.125399,-0.1149 -0.290894,-0.2623 -0.509765,-0.3789 -0.218871,-0.1167 -0.54626,-0.2197 -0.88086,-0.078 -0.297772,0.1259 -0.496382,0.3926 -0.58789,0.6308 -0.09151,0.2383 -0.115043,0.4639 -0.136719,0.668 -0.04335,0.4081 -0.109511,0.6927 -0.164062,0.7461 -0.212965,0.2085 -0.894322,0.4955 -1.492188,0.6562 -0.3905,0.105 -0.525922,0.119 -0.724609,0.1543 l -0.511719,-1.3007 1.646484,-0.5606 a 0.50005,0.50005 0 0 0 0.339844,-0.4844 c 0,0 -0.01238,-0.568 0.0332,-1.2636 0.04558,-0.6957 0.173204,-1.5291 0.349609,-1.9102 0.115664,-0.2499 0.251136,-0.515 0.396485,-0.7012 0.145348,-0.1861 0.27376,-0.2718 0.386719,-0.289 z"/><path style="color:#000000;font-style:normal;font-variant:normal;font-weight:normal;font-stretch:normal;font-size:medium;line-height:normal;font-family:sans-serif;text-indent:0;text-align:start;text-decoration:none;text-decoration-line:none;text-decoration-style:solid;text-decoration-color:#000000;letter-spacing:normal;word-spacing:normal;text-transform:none;direction:ltr;block-progression:tb;writing-mode:lr-tb;baseline-shift:baseline;text-anchor:start;white-space:normal;clip-rule:nonzero;display:inline;overflow:visible;visibility:visible;opacity:1;isolation:auto;mix-blend-mode:normal;color-interpolation:sRGB;color-interpolation-filters:linearRGB;solid-color:#000000;solid-opacity:1;fill:#000000;fill-opacity:1;fill-rule:evenodd;stroke:none;stroke-width:0.99999994px;stroke-linecap:butt;stroke-linejoin:miter;stroke-miterlimit:4;stroke-dasharray:none;stroke-dashoffset:0;stroke-opacity:1;color-rendering:auto;image-rendering:auto;shape-rendering:auto;text-rendering:auto;enable-background:accumulate" d="m 18.134766,1022.7637 c -0.476897,-0.1312 -1.047778,-0.1645 -1.574219,0.088 -0.98705,0.4192 -1.477764,1.1888 -1.800781,2.1113 l -0.0098,0.023 -0.0059,0.024 c -0.165328,0.6799 0.04938,1.362 0.414062,1.8808 0.357247,0.5082 0.904435,0.7765 1.40625,0.9297 0.66473,0.203 1.438199,0.2797 2.162109,0.031 0.618532,-0.2124 1.295492,-0.614 1.591797,-1.334 0.337051,-0.819 0.175881,-1.7554 -0.261718,-2.4649 -0.441947,-0.7165 -1.213694,-1.0948 -1.921875,-1.289 z m -0.265625,0.9629 c 0.549271,0.1506 1.099891,0.4688 1.335937,0.8515 0.273452,0.4434 0.364965,1.1274 0.1875,1.5586 -0.123621,0.3004 -0.555697,0.6197 -0.992187,0.7695 -0.443356,0.1522 -1.028944,0.1147 -1.544922,-0.043 -0.367977,-0.1124 -0.717631,-0.3175 -0.878907,-0.5469 -0.215769,-0.3069 -0.324107,-0.7574 -0.255859,-1.0586 0.283167,-0.7988 0.515263,-1.1941 1.238281,-1.4961 l 0.01367,-0.01 0.01367,-0.01 c 0.207386,-0.1019 0.569892,-0.1095 0.882813,-0.023 z"/><path style="color:#000000;font-style:normal;font-variant:normal;font-weight:normal;font-stretch:normal;font-size:medium;line-height:normal;font-family:sans-serif;text-indent:0;text-align:start;text-decoration:none;text-decoration-line:none;text-decoration-style:solid;text-decoration-color:#000000;letter-spacing:normal;word-spacing:normal;text-transform:none;direction:ltr;block-progression:tb;writing-mode:lr-tb;baseline-shift:baseline;text-anchor:start;white-space:normal;clip-rule:nonzero;display:inline;overflow:visible;visibility:visible;opacity:1;isolation:auto;mix-blend-mode:normal;color-interpolation:sRGB;color-interpolation-filters:linearRGB;solid-color:#000000;solid-opacity:1;fill:#000000;fill-opacity:1;fill-rule:evenodd;stroke:none;stroke-width:0.24999999;stroke-linecap:round;stroke-linejoin:round;stroke-miterlimit:4;stroke-dasharray:none;stroke-dashoffset:0;stroke-opacity:1;color-rendering:auto;image-rendering:auto;shape-rendering:auto;text-rendering:auto;enable-background:accumulate" d="m 16.339844,1024.4844 a 0.12501249,0.12501249 0 0 0 -0.08594,0.039 l -1.076172,1.1172 a 0.12502898,0.12502898 0 1 0 0.179688,0.1739 l 1.078125,-1.1172 a 0.12501249,0.12501249 0 0 0 -0.0957,-0.2129 z"/><path style="color:#000000;font-style:normal;font-variant:normal;font-weight:normal;font-stretch:normal;font-size:medium;line-height:normal;font-family:sans-serif;text-indent:0;text-align:start;text-decoration:none;text-decoration-line:none;text-decoration-style:solid;text-decoration-color:#000000;letter-spacing:normal;word-spacing:normal;text-transform:none;direction:ltr;block-progression:tb;writing-mode:lr-tb;baseline-shift:baseline;text-anchor:start;white-space:normal;clip-rule:nonzero;display:inline;overflow:visible;visibility:visible;opacity:1;isolation:auto;mix-blend-mode:normal;color-interpolation:sRGB;color-interpolation-filters:linearRGB;solid-color:#000000;solid-opacity:1;fill:#000000;fill-opacity:1;fill-rule:evenodd;stroke:none;stroke-width:0.24999999;stroke-linecap:round;stroke-linejoin:round;stroke-miterlimit:4;stroke-dasharray:none;stroke-dashoffset:0;stroke-opacity:1;color-rendering:auto;image-rendering:auto;shape-rendering:auto;text-rendering:auto;enable-background:accumulate" d="m 16.298828,1024.9453 a 0.12501249,0.12501249 0 0 0 -0.08398,0.043 l -0.982422,1.0781 a 0.12507275,0.12507275 0 1 0 0.183594,0.1699 l 0.984375,-1.0801 a 0.12501249,0.12501249 0 0 0 -0.101563,-0.2109 z"/><path style="color:#000000;font-style:normal;font-variant:normal;font-weight:normal;font-stretch:normal;font-size:medium;line-height:normal;font-family:sans-serif;text-indent:0;text-align:start;text-decoration:none;text-decoration-line:none;text-decoration-style:solid;text-decoration-color:#000000;letter-spacing:normal;word-spacing:normal;text-transform:none;direction:ltr;block-progression:tb;writing-mode:lr-tb;baseline-shift:baseline;text-anchor:start;white-space:normal;clip-rule:nonzero;display:inline;overflow:visible;visibility:visible;opacity:1;isolation:auto;mix-blend-mode:normal;color-interpolation:sRGB;color-interpolation-filters:linearRGB;solid-color:#000000;solid-opacity:1;fill:#000000;fill-opacity:1;fill-rule:evenodd;stroke:none;stroke-width:0.24999999;stroke-linecap:round;stroke-linejoin:round;stroke-miterlimit:4;stroke-dasharray:none;stroke-dashoffset:0;stroke-opacity:1;color-rendering:auto;image-rendering:auto;shape-rendering:auto;text-rendering:auto;enable-background:accumulate" d="m 16.425781,1025.5078 a 0.12501249,0.12501249 0 0 0 -0.08594,0.039 l -0.869141,0.8769 a 0.12501249,0.12501249 0 1 0 0.175781,0.1758 l 0.871094,-0.8769 a 0.12501249,0.12501249 0 0 0 -0.0918,-0.2149 z"/><path style="color:#000000;font-style:normal;font-variant:normal;font-weight:normal;font-stretch:normal;font-size:medium;line-height:normal;font-family:sans-serif;text-indent:0;text-align:start;text-decoration:none;text-decoration-line:none;text-decoration-style:solid;text-decoration-color:#000000;letter-spacing:normal;word-spacing:normal;text-transform:none;direction:ltr;block-progression:tb;writing-mode:lr-tb;baseline-shift:baseline;text-anchor:start;white-space:normal;clip-rule:nonzero;display:inline;overflow:visible;visibility:visible;opacity:1;isolation:auto;mix-blend-mode:normal;color-interpolation:sRGB;color-interpolation-filters:linearRGB;solid-color:#000000;solid-opacity:1;fill:#000000;fill-opacity:1;fill-rule:evenodd;stroke:none;stroke-width:0.24999999;stroke-linecap:round;stroke-linejoin:round;stroke-miterlimit:4;stroke-dasharray:none;stroke-dashoffset:0;stroke-opacity:1;color-rendering:auto;image-rendering:auto;shape-rendering:auto;text-rendering:auto;enable-background:accumulate" d="m 16.617188,1025.877 a 0.12501249,0.12501249 0 0 0 -0.0957,0.045 l -0.757812,0.8769 a 0.12532084,0.12532084 0 1 0 0.189453,0.1641 l 0.757813,-0.877 a 0.12501249,0.12501249 0 0 0 -0.09375,-0.2089 z"/><path style="color:#000000;font-style:normal;font-variant:normal;font-weight:normal;font-stretch:normal;font-size:medium;line-height:normal;font-family:sans-serif;text-indent:0;text-align:start;text-decoration:none;text-decoration-line:none;text-decoration-style:solid;text-decoration-color:#000000;letter-spacing:normal;word-spacing:normal;text-transform:none;direction:ltr;block-progression:tb;writing-mode:lr-tb;baseline-shift:baseline;text-anchor:start;white-space:normal;clip-rule:nonzero;display:inline;overflow:visible;visibility:visible;opacity:1;isolation:auto;mix-blend-mode:normal;color-interpolation:sRGB;color-interpolation-filters:linearRGB;solid-color:#000000;solid-opacity:1;fill:#000000;fill-opacity:1;fill-rule:evenodd;stroke:none;stroke-width:0.24999999;stroke-linecap:round;stroke-linejoin:round;stroke-miterlimit:4;stroke-dasharray:none;stroke-dashoffset:0;stroke-opacity:1;color-rendering:auto;image-rendering:auto;shape-rendering:auto;text-rendering:auto;enable-background:accumulate" d="m 16.917969,1026.1641 a 0.12501249,0.12501249 0 0 0 -0.08008,0.047 l -0.673829,0.8399 a 0.12501249,0.12501249 0 1 0 0.19336,0.1562 l 0.673828,-0.8398 a 0.12501249,0.12501249 0 0 0 -0.113281,-0.2031 z"/><path style="color:#000000;font-style:normal;font-variant:normal;font-weight:normal;font-stretch:normal;font-size:medium;line-height:normal;font-family:sans-serif;text-indent:0;text-align:start;text-decoration:none;text-decoration-line:none;text-decoration-style:solid;text-decoration-color:#000000;letter-spacing:normal;word-spacing:normal;text-transform:none;direction:ltr;block-progression:tb;writing-mode:lr-tb;baseline-shift:baseline;text-anchor:start;white-space:normal;clip-rule:nonzero;display:inline;overflow:visible;visibility:visible;opacity:1;isolation:auto;mix-blend-mode:normal;color-interpolation:sRGB;color-interpolation-filters:linearRGB;solid-color:#000000;solid-opacity:1;fill:#000000;fill-opacity:1;fill-rule:evenodd;stroke:none;stroke-width:0.24999999;stroke-linecap:round;stroke-linejoin:round;stroke-miterlimit:4;stroke-dasharray:none;stroke-dashoffset:0;stroke-opacity:1;color-rendering:auto;image-rendering:auto;shape-rendering:auto;text-rendering:auto;enable-background:accumulate" d="m 17.244141,1026.3301 a 0.12501249,0.12501249 0 0 0 -0.0918,0.053 l -0.59961,0.8203 a 0.12502242,0.12502242 0 0 0 0.201172,0.1485 l 0.59961,-0.8223 a 0.12501249,0.12501249 0 0 0 -0.109375,-0.1992 z"/><path style="color:#000000;font-style:normal;font-variant:normal;font-weight:normal;font-stretch:normal;font-size:medium;line-height:normal;font-family:sans-serif;text-indent:0;text-align:start;text-decoration:none;text-decoration-line:none;text-decoration-style:solid;text-decoration-color:#000000;letter-spacing:normal;word-spacing:normal;text-transform:none;direction:ltr;block-progression:tb;writing-mode:lr-tb;baseline-shift:baseline;text-anchor:start;white-space:normal;clip-rule:nonzero;display:inline;overflow:visible;visibility:visible;opacity:1;isolation:auto;mix-blend-mode:normal;color-interpolation:sRGB;color-interpolation-filters:linearRGB;solid-color:#000000;solid-opacity:1;fill:#000000;fill-opacity:1;fill-rule:evenodd;stroke:none;stroke-width:0.24999999;stroke-linecap:round;stroke-linejoin:round;stroke-miterlimit:4;stroke-dasharray:none;stroke-dashoffset:0;stroke-opacity:1;color-rendering:auto;image-rendering:auto;shape-rendering:auto;text-rendering:auto;enable-background:accumulate" d="m 17.710938,1026.4492 a 0.12501249,0.12501249 0 0 0 -0.09375,0.047 l -0.65625,0.7734 a 0.12541199,0.12541199 0 1 0 0.191406,0.1621 l 0.654297,-0.7754 a 0.12501249,0.12501249 0 0 0 -0.0957,-0.207 z"/><path style="color:#000000;font-style:normal;font-variant:normal;font-weight:normal;font-stretch:normal;font-size:medium;line-height:normal;font-family:sans-serif;text-indent:0;text-align:start;text-decoration:none;text-decoration-line:none;text-decoration-style:solid;text-decoration-color:#000000;letter-spacing:normal;word-spacing:normal;text-transform:none;direction:ltr;block-progression:tb;writing-mode:lr-tb;baseline-shift:baseline;text-anchor:start;white-space:normal;clip-rule:nonzero;display:inline;overflow:visible;visibility:visible;opacity:1;isolation:auto;mix-blend-mode:normal;color-interpolation:sRGB;color-interpolation-filters:linearRGB;solid-color:#000000;solid-opacity:1;fill:#000000;fill-opacity:1;fill-rule:evenodd;stroke:none;stroke-width:0.24999999;stroke-linecap:round;stroke-linejoin:round;stroke-miterlimit:4;stroke-dasharray:none;stroke-dashoffset:0;stroke-opacity:1;color-rendering:auto;image-rendering:auto;shape-rendering:auto;text-rendering:auto;enable-background:accumulate" d="m 18.142578,1026.459 a 0.12501249,0.12501249 0 0 0 -0.0918,0.051 l -0.617187,0.832 a 0.12501249,0.12501249 0 1 0 0.201172,0.1484 l 0.617187,-0.83 a 0.12501249,0.12501249 0 0 0 -0.109375,-0.2012 z"/><path style="color:#000000;font-style:normal;font-variant:normal;font-weight:normal;font-stretch:normal;font-size:medium;line-height:normal;font-family:sans-serif;text-indent:0;text-align:start;text-decoration:none;text-decoration-line:none;text-decoration-style:solid;text-decoration-color:#000000;letter-spacing:normal;word-spacing:normal;text-transform:none;direction:ltr;block-progression:tb;writing-mode:lr-tb;baseline-shift:baseline;text-anchor:start;white-space:normal;clip-rule:nonzero;display:inline;overflow:visible;visibility:visible;opacity:1;isolation:auto;mix-blend-mode:normal;color-interpolation:sRGB;color-interpolation-filters:linearRGB;solid-color:#000000;solid-opacity:1;fill:#000000;fill-opacity:1;fill-rule:evenodd;stroke:none;stroke-width:0.24999999;stroke-linecap:round;stroke-linejoin:round;stroke-miterlimit:4;stroke-dasharray:none;stroke-dashoffset:0;stroke-opacity:1;color-rendering:auto;image-rendering:auto;shape-rendering:auto;text-rendering:auto;enable-background:accumulate" d="m 18.640625,1026.5332 a 0.12501249,0.12501249 0 0 0 -0.09375,0.051 l -0.597656,0.8027 a 0.12501249,0.12501249 0 1 0 0.199219,0.1504 l 0.599609,-0.8027 a 0.12501249,0.12501249 0 0 0 -0.107422,-0.2012 z"/></g><text x="0" y="47" fill="#000000" font-size="5px" font-weight="bold" font-family="'Helvetica Neue', Helvetica, Arial-Unicode, Arial, Sans-serif">Created by P Thanga Vignesh</text><text x="0" y="52" fill="#000000" font-size="5px" font-weight="bold" font-family="'Helvetica Neue', Helvetica, Arial-Unicode, Arial, Sans-serif">from the Noun Project</text></svg>