<svg xmlns="http://www.w3.org/2000/svg" xmlns:xlink="http://www.w3.org/1999/xlink" version="1.1" x="0px" y="0px" viewBox="0 0 100 125" style="enable-background:new 0 0 100 100;" xml:space="preserve"><g><g><g><path d="M81,83.1c-10.1,0-18.3-8.2-18.3-18.3c0-10.1,8.2-18.3,18.3-18.3c10.1,0,18.3,8.2,18.3,18.3     C99.2,74.9,91,83.1,81,83.1z M81,48.8c-8.8,0-16,7.2-16,16s7.2,16,16,16s16-7.2,16-16S89.8,48.8,81,48.8z"/></g><g><path d="M92.1,65.9c-0.6,0-1.1-0.5-1.1-1.1c0-5.5-4.5-10-10-10c-0.6,0-1.1-0.5-1.1-1.1c0-0.6,0.5-1.1,1.1-1.1     c6.7,0,12.2,5.5,12.2,12.2C93.2,65.4,92.7,65.9,92.1,65.9z"/></g><g><path d="M81,70.2c-3,0-5.4-2.4-5.4-5.4c0-3,2.4-5.4,5.4-5.4c3,0,5.4,2.4,5.4,5.4C86.4,67.8,84,70.2,81,70.2z      M81,61.6c-1.8,0-3.2,1.4-3.2,3.2c0,1.8,1.4,3.2,3.2,3.2c1.8,0,3.2-1.4,3.2-3.2C84.2,63,82.7,61.6,81,61.6z"/></g></g><g><g><path d="M19,83.1C9,83.1,0.8,74.9,0.8,64.8C0.8,54.7,9,46.5,19,46.5c10.1,0,18.3,8.2,18.3,18.3     C37.3,74.9,29.1,83.1,19,83.1z M19,48.8c-8.8,0-16,7.2-16,16s7.2,16,16,16s16-7.2,16-16S27.9,48.8,19,48.8z"/></g><g><path d="M30.1,65.9c-0.6,0-1.1-0.5-1.1-1.1c0-5.5-4.5-10-10-10c-0.6,0-1.1-0.5-1.1-1.1c0-0.6,0.5-1.1,1.1-1.1     c6.7,0,12.2,5.5,12.2,12.2C31.2,65.4,30.7,65.9,30.1,65.9z"/></g><g><path d="M19,70.2c-3,0-5.4-2.4-5.4-5.4c0-3,2.4-5.4,5.4-5.4c3,0,5.4,2.4,5.4,5.4C24.5,67.8,22,70.2,19,70.2z      M19,61.6c-1.8,0-3.2,1.4-3.2,3.2c0,1.8,1.4,3.2,3.2,3.2c1.8,0,3.2-1.4,3.2-3.2C22.2,63,20.8,61.6,19,61.6z"/></g></g><g><path d="M57.6,65.9H42.4v-1.1c0-12.9-10.5-23.4-23.4-23.4c-6.5,0-12.7,2.7-17.1,7.5c-0.4,0.4-1.1,0.5-1.6,0.1    c-0.4-0.4-0.5-1.1-0.1-1.6C5.1,42.2,12,39.2,19,39.2c13.8,0,25,10.9,25.6,24.5h10.8C56,50.1,67.2,39.2,81,39.2    c7.1,0,13.9,3,18.7,8.2c0.4,0.4,0.4,1.1-0.1,1.6c-0.4,0.4-1.1,0.4-1.6-0.1c-4.4-4.7-10.7-7.5-17.1-7.5    c-12.9,0-23.4,10.5-23.4,23.4V65.9z"/></g><g><path d="M95.3,46c-0.6,0-1.1-0.5-1.1-1.1V36c0-1.9-1.5-3.4-3.4-3.4h-7.2c-2,0-3.9-0.6-5.5-1.6L70,25.8    c-0.2-0.2-0.5-0.1-0.5,0c-0.1,0-0.3,0.2-0.3,0.5v4.6c0,1.7-0.8,3.3-2.3,4.3l-3.5,2.4c-3.1,2.1-6.8,3.2-10.6,3.2    c-4.5,0-8.9-1.6-12.4-4.6l-4-3.4H6.2c-0.6,0-1,0.5-1,1v2.8c0,0.6,0.3,1.1,0.7,1.5l4.2,3.4c0.5,0.4,0.5,1.1,0.2,1.6    c-0.4,0.5-1.1,0.5-1.6,0.2l-4.2-3.4C3.5,38.9,3,37.8,3,36.6v-2.8c0-1.8,1.5-3.3,3.3-3.3h31.1l4.6,4c3,2.6,6.9,4.1,10.9,4.1    c3.3,0,6.6-1,9.3-2.8l3.5-2.4c0.8-0.5,1.3-1.5,1.3-2.4v-4.6c0-1,0.5-1.9,1.4-2.4c0.9-0.5,2-0.4,2.8,0.1l8.1,5.2    c1.3,0.8,2.8,1.3,4.3,1.3h7.2c3.1,0,5.6,2.5,5.6,5.6v8.9C96.4,45.5,95.9,46,95.3,46z"/></g><g><path d="M43,37.8c-0.2,0-0.4,0-0.5-0.1c-0.5-0.3-0.7-1-0.5-1.5c0.1-0.3,0.3-0.5,0.4-0.7c2.7-4.6,7.8-7.4,13.4-7.4    h12.3c0.6,0,1.1,0.5,1.1,1.1c0,0.6-0.5,1.1-1.1,1.1H55.8c-4.8,0-9.2,2.4-11.5,6.3c-0.1,0.2-0.2,0.4-0.4,0.6    C43.8,37.5,43.4,37.8,43,37.8z"/></g><g><path d="M72.6,27.3c-0.2,0-0.5-0.1-0.7-0.2L62.3,20c-0.8-0.6-1.7-0.9-2.6-0.9h-6.9c-0.6,0-1.1-0.5-1.1-1.1    c0-0.6,0.5-1.1,1.1-1.1h6.9c1.4,0,2.8,0.4,3.9,1.3l9.7,7.1c0.5,0.4,0.6,1.1,0.2,1.5C73.3,27.1,73,27.3,72.6,27.3z"/></g></g><text x="0" y="115" fill="#000000" font-size="5px" font-weight="bold" font-family="'Helvetica Neue', Helvetica, Arial-Unicode, Arial, Sans-serif">Created by Andrei Yushchenko</text><text x="0" y="120" fill="#000000" font-size="5px" font-weight="bold" font-family="'Helvetica Neue', Helvetica, Arial-Unicode, Arial, Sans-serif">from the Noun Project</text></svg>