<svg xmlns="http://www.w3.org/2000/svg" xmlns:xlink="http://www.w3.org/1999/xlink" xml:space="preserve" style="shape-rendering:geometricPrecision;text-rendering:geometricPrecision;image-rendering:optimizeQuality;" viewBox="0 0 6.82666 8.533325000000001" x="0px" y="0px" fill-rule="evenodd" clip-rule="evenodd"><defs><style type="text/css">
   
    .fil1 {fill:none}
    .fil0 {fill:black;fill-rule:nonzero}
   
  </style></defs><g><path class="fil0" d="M5.03181 6.22906c0.0381417,0.0219173 0.0868346,0.00876772 0.108752,-0.029374 0.0219173,-0.0381417 0.00876772,-0.0868346 -0.029374,-0.108752l-3.40309 -1.96478c-0.0381417,-0.0219173 -0.0868346,-0.00876772 -0.108752,0.029374 -0.0219173,0.0381417 -0.00876772,0.0868346 0.029374,0.108752l3.40309 1.96478z"/><path class="fil0" d="M1.71547 6.09093c-0.0381417,0.0219173 -0.0512913,0.0706102 -0.029374,0.108752 0.0219173,0.0381417 0.0706102,0.0512913 0.108752,0.029374l3.40309 -1.96478c0.0381417,-0.0219173 0.0512913,-0.0706102 0.029374,-0.108752 -0.0219173,-0.0381417 -0.0706102,-0.0512913 -0.108752,-0.029374l-3.40309 1.96478z"/><path class="fil0" d="M3.10376 4.32057c-0.103472,-0.0112913 -1.3084,-0.17587 -0.898988,-1.70916l-9.84252e-005 -2.75591e-005c0.0113976,-0.042685 0.0552441,-0.0680512 0.0979291,-0.0566535 0.0255906,0.00683465 0.0449488,0.0253307 0.0539016,0.048248 0.0130866,0.0280906 0.0995472,0.20587 0.211571,0.250953 -0.038878,-0.30324 -0.121465,-1.20265 0.271311,-1.17757l-0.005 0.079689 0.00509843 -0.0798386c0.0440906,0.00281496 0.0775551,0.0408465 0.0747402,0.084937 -9.05512e-005,0.00144488 -0.000228346,0.00288189 -0.000393701,0.00430315 -0.00227559,0.0314488 -0.0176457,0.291669 0.0961378,0.296937 0.0541693,-0.117295 0.215378,-0.525957 0.151469,-1.12052l-0.000177165 1.9685e-005c-0.00472047,-0.0439291 0.027063,-0.083374 0.0709921,-0.0880945 0.0156142,-0.00167717 0.0306614,0.00125984 0.0437835,0.0077126 0.052,0.0233307 0.654146,0.315972 0.562925,1.33255 0.0519646,0.0132835 0.144098,0.00843307 0.222669,-0.144783l0.070937 0.036252 -0.071185 -0.0365039c0.0201575,-0.039311 0.068378,-0.0548386 0.107689,-0.0346811 0.00111024,0.000570866 0.00220079,0.00116929 0.00327559,0.00178346 0.0520276,0.0259567 0.341354,0.194555 0.236614,0.690921 0.0714567,-0.0191772 0.171831,-0.087815 0.230402,-0.310382l0.077189 0.020311 -0.0773661 -0.0203583c0.0112402,-0.0427244 0.055,-0.068248 0.0977244,-0.0570079 0.0217441,0.00572047 0.0390276,0.0198622 0.0492795,0.0380039 0.104795,0.160803 0.142835,0.361441 0.129106,0.571933 -0.0148425,0.227594 -0.0904685,0.468142 -0.207189,0.681209 -0.117362,0.214236 -0.276898,0.401976 -0.458823,0.522598 -0.149504,0.099126 -0.314413,0.153717 -0.484736,0.14261l0.005 -0.079689 -0.00520472 0.0798307c-0.0440866,-0.00287402 -0.0775,-0.0409488 -0.074626,-0.0850354 0.000393701,-0.00605512 0.00145669,-0.0119055 0.0031063,-0.0174921 0.00989764,-0.0460236 0.0801969,-0.407819 -0.103839,-0.637862 -0.0512047,-0.0640039 -0.0961535,-0.116555 -0.134906,-0.159457 -0.0370906,-0.041063 -0.0689528,-0.0735157 -0.0952165,-0.0987047 -0.0271969,-0.0260866 -0.0195984,-0.0510433 -0.0269843,-0.0433425 -0.0144213,0.0150354 -0.0347677,0.0464291 -0.0632953,0.0904528l-0.00831102 0.0128189c-0.0709173,0.109264 -0.108098,0.2465 -0.119508,0.387831 -0.0133661,0.165583 0.00872047,0.334831 0.0535945,0.471736l0.000141732 -4.72441e-005c0.0137677,0.0419803 -0.00910236,0.0871811 -0.0510827,0.100949 -0.0132598,0.00435039 -0.0268465,0.00504331 -0.0396575,0.00262992zm-0.787335 -1.48085c-0.183799,0.97765 0.42689,1.23604 0.692374,1.30156 -0.0275118,-0.127626 -0.0386378,-0.269429 -0.0274134,-0.408476 0.0133661,-0.165535 0.058437,-0.328626 0.145138,-0.462201l0.00831102 -0.0128189c0.0334291,-0.0515866 0.0572677,-0.0883701 0.0820433,-0.114201 0.0860591,-0.0897205 0.137551,-0.0713937 0.252606,0.0389646 0.0269764,0.025874 0.0609606,0.0605945 0.10272,0.106831 0.0401024,0.0443937 0.0870433,0.099311 0.141157,0.166953 0.175921,0.219902 0.168634,0.523492 0.150291,0.678287 0.102654,-0.0110512 0.203185,-0.0518583 0.297504,-0.114398 0.160083,-0.106142 0.301669,-0.273539 0.406949,-0.465724 0.105921,-0.193354 0.174484,-0.410559 0.187811,-0.614957 0.00732677,-0.112346 -0.00211024,-0.220327 -0.0313858,-0.31739 -0.150228,0.289827 -0.391197,0.253118 -0.431783,0.244594 -0.00308661,-0.000531496 -0.00617717,-0.00124016 -0.00925591,-0.00214961 -0.0423661,-0.0125276 -0.0665551,-0.0570394 -0.0540276,-0.0994055l0.000192913 5.51181e-005c0.101087,-0.341913 -0.000122047,-0.501319 -0.0716181,-0.566921 -0.176563,0.255843 -0.399669,0.140736 -0.441409,0.115913 -0.028378,-0.014874 -0.0461654,-0.0460945 -0.0423622,-0.0798465l0.000141732 1.5748e-005c0.0779291,-0.691535 -0.179102,-1.01555 -0.34178,-1.14835 0.0296417,0.624929 -0.171047,1.03273 -0.196421,1.08159 -0.00924803,0.0205551 -0.0270709,0.0370984 -0.0503898,0.0439567l-0.0225748 -0.076748 0.0225 0.076563c-0.267457,0.0786654 -0.322591,-0.179957 -0.331669,-0.341531 -0.149,0.175815 -0.0279921,0.972173 -0.0155827,1.05099 0.000173228,0.000716535 0.00034252,0.00143307 0.000496063,0.00215748 0.00925591,0.0432008 -0.0182598,0.0857323 -0.0614606,0.0949882l-0.0167638 -0.0782244 0.016563 0.078126c-0.154579,0.033122 -0.279205,-0.0736063 -0.360902,-0.178201z"/></g><rect class="fil1" width="6.82666" height="6.82666"/><text x="0" y="21.82666" fill="#000000" font-size="5px" font-weight="bold" font-family="'Helvetica Neue', Helvetica, Arial-Unicode, Arial, Sans-serif">Created by IYIKON</text><text x="0" y="26.82666" fill="#000000" font-size="5px" font-weight="bold" font-family="'Helvetica Neue', Helvetica, Arial-Unicode, Arial, Sans-serif">from the Noun Project</text></svg>