<svg xmlns="http://www.w3.org/2000/svg" xmlns:xlink="http://www.w3.org/1999/xlink" version="1.1" x="0px" y="0px" viewBox="0 0 100 125" style="enable-background:new 0 0 100 100;" xml:space="preserve"><style type="text/css">
	.st0{fill:none;stroke:#000000;stroke-miterlimit:10;}
</style><path class="st0" d="M68.6,51.8h-1.7c-2.2,0-3.9,1.8-3.9,3.9v6h-4.1V28.2c0-4.3-3.5-7.8-7.8-7.8c-4.3,0-7.8,3.5-7.8,7.8v12.4h-4.2  v-5.3c0-1.9-1.5-3.4-3.4-3.4h-1.4c-1.9,0-3.4,1.5-3.4,3.4v7.9c0,2.4,1.9,4.3,4.3,4.3h0.3h3.7h4.2v32.1h15.6v-10H63h4.3h0.3  c2.7,0,4.9-2.2,4.9-4.9v-9.1C72.5,53.6,70.7,51.8,68.6,51.8z"/><text x="0" y="115" fill="#000000" font-size="5px" font-weight="bold" font-family="'Helvetica Neue', Helvetica, Arial-Unicode, Arial, Sans-serif">Created by Abdo</text><text x="0" y="120" fill="#000000" font-size="5px" font-weight="bold" font-family="'Helvetica Neue', Helvetica, Arial-Unicode, Arial, Sans-serif">from the Noun Project</text></svg>