<svg xmlns="http://www.w3.org/2000/svg" viewBox="0 0 64 80" x="0px" y="0px"><title>21-Jacuzzi</title><g data-name="21-Jacuzzi"><path d="M51,46a3,3,0,0,1-3-3v-.5a.5.5,0,0,0-.5-.5A2.5,2.5,0,0,1,45,39.5V38H1a1,1,0,0,1-1-1V33a1,1,0,0,1,1-1H63a1,1,0,0,1,1,1v4a1,1,0,0,1-1,1H54v5A3,3,0,0,1,51,46ZM2,36H46a1,1,0,0,1,1,1v2.5a.5.5,0,0,0,.5.5A2.5,2.5,0,0,1,50,42.5V43a1,1,0,0,0,2,0V37a1,1,0,0,1,1-1h9V34H2Z"/><path d="M63,64H1a1,1,0,0,1-1-1V59a1,1,0,0,1,1-1H63a1,1,0,0,1,1,1v4A1,1,0,0,1,63,64ZM2,62H62V60H2Z"/><rect x="2" y="37" width="2" height="22"/><rect x="60" y="37" width="2" height="22"/><path d="M32,22a7.008,7.008,0,0,1-7-7V10a1,1,0,0,1,1-1c.04,0,4-.066,4-2a1,1,0,0,1,2,0h0s.316,2,6,2a1,1,0,0,1,1,1v5A7.008,7.008,0,0,1,32,22ZM27,10.947V15a5,5,0,0,0,10,0V10.979c-3.154-.136-4.889-.919-5.841-1.758A6.662,6.662,0,0,1,27,10.947Z"/><path d="M42,11H40V10a8,8,0,0,0-16,0v1H22V10a10,10,0,0,1,20,0Z"/><path d="M39,16H38V14h1a1,1,0,0,0,1-1V12H38V10h3a1,1,0,0,1,1,1v2A3,3,0,0,1,39,16Z"/><path d="M26,16H25a3,3,0,0,1-3-3V11a1,1,0,0,1,1-1h3v2H24v1a1,1,0,0,0,1,1h1Z"/><path d="M22,33H20V25a1,1,0,0,1,.783-.977L29,22.2V20h2v3a1,1,0,0,1-.783.977L22,25.8Z"/><path d="M44,33H42V25.8l-8.217-1.825A1,1,0,0,1,33,23V20h2v2.2l8.217,1.825A1,1,0,0,1,44,25Z"/><rect x="25" y="29" width="2" height="4"/><rect x="37" y="29" width="2" height="4"/><rect x="45" y="33" width="2" height="4"/><rect x="52" y="33" width="2" height="4"/><rect x="3" y="51" width="58" height="2"/><rect x="3" y="43" width="43" height="2"/><rect x="55" y="43" width="6" height="2"/><path d="M51,25H49c0-.562-.217-.8-.707-1.293a3.48,3.48,0,0,1,0-5.414c.49-.49.707-.731.707-1.293s-.217-.8-.707-1.293A3.564,3.564,0,0,1,47,13h2c0,.562.217.8.707,1.293a3.48,3.48,0,0,1,0,5.414C49.217,20.2,49,20.438,49,21s.217.8.707,1.293A3.564,3.564,0,0,1,51,25Z"/><path d="M58,29H56c0-.562-.217-.8-.707-1.293a3.48,3.48,0,0,1,0-5.414c.49-.49.707-.731.707-1.293s-.217-.8-.707-1.293A3.564,3.564,0,0,1,54,17h2c0,.562.217.8.707,1.293a3.48,3.48,0,0,1,0,5.414C56.217,24.2,56,24.438,56,25s.217.8.707,1.293A3.564,3.564,0,0,1,58,29Z"/><path d="M15,25H13a3.564,3.564,0,0,1,1.293-2.707c.49-.49.707-.731.707-1.293s-.217-.8-.707-1.293a3.48,3.48,0,0,1,0-5.414c.49-.49.707-.731.707-1.293h2a3.564,3.564,0,0,1-1.293,2.707C15.217,16.2,15,16.438,15,17s.217.8.707,1.293a3.48,3.48,0,0,1,0,5.414C15.217,24.2,15,24.438,15,25Z"/><path d="M8,29H6a3.564,3.564,0,0,1,1.293-2.707C7.783,25.8,8,25.562,8,25s-.217-.8-.707-1.293a3.48,3.48,0,0,1,0-5.414C7.783,17.8,8,17.562,8,17h2a3.564,3.564,0,0,1-1.293,2.707C8.217,20.2,8,20.438,8,21s.217.8.707,1.293a3.48,3.48,0,0,1,0,5.414C8.217,28.2,8,28.438,8,29Z"/></g></svg>