<svg xmlns="http://www.w3.org/2000/svg" xmlns:xlink="http://www.w3.org/1999/xlink" version="1.1" x="0px" y="0px" viewBox="0 0 80 100" enable-background="new 0 0 80 80" xml:space="preserve"><g><path fill="#000000" d="M41.5,46c-3.584,0-6.5-2.916-6.5-6.5s2.916-6.5,6.5-6.5s6.5,2.916,6.5,6.5S45.084,46,41.5,46z M41.5,35   c-2.481,0-4.5,2.019-4.5,4.5s2.019,4.5,4.5,4.5s4.5-2.019,4.5-4.5S43.981,35,41.5,35z"/></g><g><path fill="#000000" d="M41.5,57C37.318,57,31,57,31,51.5c0-4.9,7.809-6.5,10.5-6.5c3.289,0,10.5,1.637,10.5,6.5   C52,57,45.682,57,41.5,57z M41.5,47c-2.341,0-8.5,1.384-8.5,4.5c0,2.958,2.862,3.5,8.5,3.5s8.5-0.542,8.5-3.5   C50,48.295,44.001,47,41.5,47z"/></g><g><path fill="#000000" d="M29.465,40c-3.562,0-6.478-2.897-6.499-6.459c-0.011-1.736,0.654-3.373,1.875-4.608   c1.22-1.235,2.848-1.922,4.585-1.933c3.602,0,6.518,2.897,6.54,6.459c0.021,3.584-2.876,6.518-6.46,6.541H29.465z M29.466,29   c-1.23,0.007-2.357,0.483-3.202,1.338c-0.845,0.855-1.538,1.988-1.53,3.19C24.748,35.994,27,38,29,38v1l0.262-1   c2.48-0.016,4.604-2.047,4.588-4.528C33.834,31.006,31.932,29,29.466,29z"/></g><g><path fill="#000000" d="M29.017,51.002c-2.688,0-4.835-0.137-6.497-0.712c-2.294-0.794-3.464-2.384-3.479-4.725   c-0.01-1.539,0.765-3.701,4.508-5.257c2.276-0.947,4.806-1.301,5.951-1.308c1.271-0.008,2.995,0.238,4.492,0.659l-0.541,1.926   c-1.563-0.439-3.043-0.583-3.939-0.584c-0.949,0.006-3.199,0.325-5.195,1.155c-1.5,0.624-3.286,1.72-3.275,3.398   c0.009,1.481,0.647,2.333,2.133,2.847c1.507,0.522,3.643,0.617,6.389,0.6l0.012,2C29.386,51.001,29.199,51.002,29.017,51.002z"/></g><g><path fill="#000000" d="M53.542,40L53.542,40h-0.041c-1.737-0.011-3.365-0.697-4.585-1.933c-1.221-1.235-1.886-2.872-1.875-4.608   c0.021-3.562,2.938-6.459,6.5-6.459c3.624,0.022,6.521,2.957,6.5,6.541C60.019,37.103,57.103,40,53.542,40z M53.569,29   c-2.495,0-4.514,2.006-4.528,4.472c-0.008,1.202,0.453,2.335,1.298,3.19c0.845,0.855,2.201,1.331,3.403,1.338L54,39v-1   c2,0,4.254-2.006,4.27-4.472C58.286,31.047,56.05,29.016,53.569,29z"/></g><g><path fill="#000000" d="M54.351,51.004c-0.315,0-0.622-0.002-0.919-0.004l0.012-2c5.667,0.03,8.504-0.488,8.522-3.447   c0.02-3.116-6.131-4.538-8.472-4.553c-0.016,0-0.031,0-0.046,0c-0.885,0-2.356,0.153-3.894,0.584l-0.541-1.926   c1.497-0.42,3.221-0.675,4.492-0.659c2.691,0.017,10.49,1.665,10.46,6.565C63.934,50.675,58.478,51.004,54.351,51.004z"/></g><text x="0" y="95" fill="#000000" font-size="5px" font-weight="bold" font-family="'Helvetica Neue', Helvetica, Arial-Unicode, Arial, Sans-serif">Created by Yaroslav Samoylov</text><text x="0" y="100" fill="#000000" font-size="5px" font-weight="bold" font-family="'Helvetica Neue', Helvetica, Arial-Unicode, Arial, Sans-serif">from the Noun Project</text></svg>