<svg xmlns="http://www.w3.org/2000/svg" xmlns:xlink="http://www.w3.org/1999/xlink" version="1.1" x="0px" y="0px" viewBox="0 0 36 45" style="enable-background:new 0 0 36 36;" xml:space="preserve"><path d="M7.23,24.73C7.16,24.8,7.13,24.9,7.13,25v9c0,0.21,0.17,0.38,0.38,0.38h8c0.21,0,0.38-0.17,0.38-0.38v-9  c0-0.1-0.04-0.2-0.11-0.27l-2.89-2.89V4.38h1.63c0.21,0,0.38-0.17,0.38-0.38V2c0-0.21-0.17-0.38-0.38-0.38h-6  C8.29,1.63,8.13,1.79,8.13,2v2c0,0.21,0.17,0.38,0.38,0.38h1.63v17.47L7.23,24.73z M8.88,3.63V2.38h5.25v1.25H8.88z M10.77,22.27  c0.07-0.07,0.11-0.17,0.11-0.27V4.38h1.25V22c0,0.1,0.04,0.2,0.11,0.27l2.89,2.89v8.47H7.88v-8.47L10.77,22.27z"/><path d="M20.23,24.73c-0.07,0.07-0.11,0.17-0.11,0.27v9c0,0.21,0.17,0.38,0.38,0.38h8c0.21,0,0.38-0.17,0.38-0.38v-9  c0-0.1-0.04-0.2-0.11-0.27l-2.89-2.89V4.38h1.63c0.21,0,0.38-0.17,0.38-0.38V2c0-0.21-0.17-0.38-0.38-0.38h-6  c-0.21,0-0.38,0.17-0.38,0.38v2c0,0.21,0.17,0.38,0.38,0.38h1.63v17.47L20.23,24.73z M21.88,3.63V2.38h5.25v1.25H21.88z   M23.77,22.27c0.07-0.07,0.11-0.17,0.11-0.27V4.38h1.25V22c0,0.1,0.04,0.2,0.11,0.27l2.89,2.89v8.47h-7.25v-8.47L23.77,22.27z"/><text x="0" y="51" fill="#000000" font-size="5px" font-weight="bold" font-family="'Helvetica Neue', Helvetica, Arial-Unicode, Arial, Sans-serif">Created by businessicons13</text><text x="0" y="56" fill="#000000" font-size="5px" font-weight="bold" font-family="'Helvetica Neue', Helvetica, Arial-Unicode, Arial, Sans-serif">from the Noun Project</text></svg>